<svg width="531" height="165" viewBox="0 0 531 165" fill="none" xmlns="http://www.w3.org/2000/svg">
<path d="M30.0997 96.9278C25.0197 96.6407 19.7728 99.8449 16.8222 105.025C12.7235 112.081 14.1454 120.566 19.9864 123.937C25.8608 127.348 33.8914 124.357 37.9901 117.261C42.0955 110.165 40.667 101.654 34.8259 98.2829C33.4041 97.4751 31.802 96.9878 30.0997 96.9278ZM300.783 20.1666H286.912C262.606 20.1666 244.769 27.3227 225.858 37.4761C215.01 43.3171 203.922 50.1328 191.86 56.8416C184.103 61.1206 180.805 71.0203 196.379 71.0203H300.783C305.509 71.0203 309.328 67.2019 309.328 62.4757V28.7179C309.328 23.9449 305.509 20.1666 300.783 20.1666ZM354.875 20.1666H338.019C333.293 20.1666 329.468 23.9449 329.468 28.7179V62.4757C329.468 67.2019 333.293 71.0203 338.019 71.0203H419.259C435.701 71.0203 439.706 53.8176 420.995 43.9112L385.435 25.0597C376.149 21.0678 365.722 20.1666 354.875 20.1666ZM349.04 0C399.206 0 433.238 30.9675 469.219 41.5815L513.09 54.4785C527.482 58.7241 531 65.0457 531 76.5209V137.949C531 154.984 523.136 164.891 504.472 164.891H468.037C468.037 134.197 443.144 109.297 412.45 109.297C397.711 109.297 383.592 115.172 373.159 125.572C362.732 136.006 356.857 150.158 356.857 164.891H174.864C174.864 134.197 149.971 109.297 119.277 109.297C104.571 109.297 90.4192 115.172 79.9921 125.572C69.5584 136.006 63.6907 150.158 63.6907 164.891H22.9436C10.2269 164.891 6.11157e-05 152.868 6.11157e-05 137.989V121.113C6.11157e-05 97.2682 12.5166 86.1803 28.9249 82.175L155.712 51.2409C199.41 35.5602 229.963 0 286.912 0H349.04Z" fill="white"/>
</svg>
