<svg width="55" height="55" viewBox="0 0 55 55" fill="none" xmlns="http://www.w3.org/2000/svg">
<g clip-path="url(#clip0_1_2021)">
<path d="M49.0497 46.0503L42.0235 31.5312C42.5583 31.1444 43.0097 30.6538 43.3506 30.0885C43.7168 29.4801 43.9442 28.7984 44.0167 28.092C44.0891 27.3857 44.0049 26.672 43.7699 26.0019C43.5696 25.4155 43.5394 24.7844 43.683 24.1816C43.8265 23.5788 44.1378 23.029 44.5809 22.5958C45.0938 22.0946 45.4888 21.4856 45.7376 20.813C45.9863 20.1404 46.0824 19.4209 46.019 18.7066C45.9556 17.9922 45.7343 17.3009 45.371 16.6826C45.0077 16.0643 44.5116 15.5345 43.9184 15.1314C43.4085 14.78 43.0084 14.2915 42.7645 13.7223C42.5206 13.153 42.4428 12.5264 42.5401 11.9148C42.6538 11.2154 42.6121 10.4996 42.4178 9.81813C42.2235 9.1367 41.8815 8.50645 41.416 7.97217C40.9386 7.4233 40.3461 6.98645 39.6806 6.69272C39.0152 6.399 38.2931 6.25563 37.5659 6.27283C36.9401 6.28539 36.3231 6.1236 35.784 5.80554C35.2449 5.48748 34.8048 5.02571 34.5132 4.47187C34.1854 3.83732 33.7231 3.28194 33.1585 2.84446C32.594 2.40698 31.9408 2.09794 31.2445 1.93891C30.538 1.77441 29.8041 1.76598 29.094 1.9142C28.3838 2.06242 27.7146 2.36372 27.1329 2.79711C26.6253 3.17161 26.0243 3.39885 25.396 3.45383C24.7676 3.5088 24.1363 3.38938 23.5714 3.10869C22.9233 2.78289 22.2119 2.60237 21.4868 2.57972C20.7617 2.55706 20.0405 2.69281 19.3732 2.97751C18.7154 3.25519 18.126 3.67301 17.6462 4.20183C17.1664 4.73065 16.8077 5.35775 16.5952 6.03942C16.4035 6.63662 16.0492 7.16863 15.5721 7.57577C15.095 7.98292 14.5139 8.24911 13.894 8.34449C13.1761 8.45445 12.4913 8.72127 11.8883 9.12596C11.2853 9.53065 10.7789 10.0633 10.4051 10.6859C10.0389 11.2943 9.81153 11.976 9.73905 12.6824C9.66656 13.3888 9.7508 14.1024 9.98576 14.7725C10.1861 15.3589 10.2162 15.99 10.0727 16.5928C9.92923 17.1957 9.61792 17.7455 9.17485 18.1787C8.66196 18.6799 8.26687 19.2889 8.01814 19.9615C7.76942 20.6341 7.67328 21.3536 7.73667 22.0679C7.80006 22.7822 8.02141 23.4735 8.3847 24.0918C8.74799 24.7101 9.24415 25.24 9.83729 25.643C10.3472 25.9944 10.7472 26.4829 10.9912 27.0521C11.2351 27.6212 11.3129 28.2478 11.2156 28.8594C11.1019 29.5588 11.1436 30.2746 11.3379 30.9561C11.5322 31.6375 11.8742 32.2677 12.3397 32.802C12.7736 33.2992 13.3034 33.7037 13.8973 33.9915L9.49922 49.5105C9.45774 49.6564 9.459 49.8112 9.50285 49.9564C9.54669 50.1016 9.63128 50.2312 9.74657 50.3298C9.86187 50.4284 10.003 50.4918 10.1533 50.5126C10.3036 50.5333 10.4566 50.5105 10.5943 50.4469L16.6203 47.6662L20.29 53.1955C20.3688 53.3144 20.4781 53.4098 20.6066 53.4717C20.735 53.5336 20.8778 53.5598 21.0198 53.5474C21.0376 53.5458 21.0552 53.5435 21.0729 53.5408C21.2228 53.5174 21.3629 53.4515 21.4765 53.351C21.5901 53.2504 21.6724 53.1194 21.7138 52.9734L25.8322 38.452C26.1098 38.3183 26.3745 38.1592 26.6228 37.9767C27.1303 37.6024 27.7311 37.3753 28.3593 37.3203C28.9875 37.2653 29.6187 37.3847 30.1834 37.6652L30.1843 37.6655C30.4596 37.8 30.7467 37.9089 31.042 37.9907L37.6219 51.5809C37.688 51.7175 37.7919 51.8322 37.9212 51.9115C38.0505 51.9908 38.1999 52.0314 38.3516 52.0284C38.3695 52.0279 38.3872 52.0272 38.405 52.0256C38.5471 52.0132 38.6831 51.9627 38.7989 51.8794C38.9146 51.7961 39.0057 51.6832 39.0627 51.5524L41.7165 45.4699L48.1337 47.1619C48.2804 47.2007 48.4351 47.1965 48.5795 47.15C48.7239 47.1035 48.8519 47.0165 48.9483 46.8994C49.0447 46.7822 49.1055 46.6399 49.1235 46.4893C49.1414 46.3387 49.1159 46.1868 49.0497 46.0503ZM20.6583 50.8814L17.5664 46.2229C17.4617 46.0653 17.3041 45.9503 17.122 45.8986C16.94 45.847 16.7455 45.8621 16.5736 45.9412L11.4954 48.2841L15.4164 34.4502C15.6726 34.487 15.9313 34.5041 16.1901 34.5013C16.8159 34.4888 17.4329 34.6506 17.972 34.9686C18.5111 35.2867 18.9512 35.7485 19.2428 36.3023C19.5706 36.9368 20.0328 37.4921 20.5973 37.9296C21.1618 38.3671 21.815 38.6761 22.5112 38.8352C23.0133 38.9502 23.5302 38.9871 24.0436 38.9446L20.6583 50.8814ZM25.674 36.7048C25.2772 37.0006 24.8206 37.2061 24.3361 37.3071C23.8516 37.4081 23.3509 37.4022 22.8689 37.2896C22.3973 37.1822 21.9547 36.9733 21.5721 36.6773C21.1895 36.3813 20.876 36.0055 20.6536 35.5759C20.2243 34.7581 19.5758 34.076 18.7806 33.606C17.9855 33.1361 17.0751 32.8969 16.1517 32.9153C15.6581 32.9268 15.168 32.8293 14.7163 32.63C14.2646 32.4306 13.8624 32.1341 13.5382 31.7617C13.2247 31.4016 12.9945 30.9767 12.8642 30.5173C12.7338 30.058 12.7064 29.5755 12.784 29.1044C12.9265 28.1955 12.809 27.2649 12.445 26.42C12.081 25.5752 11.4854 24.8505 10.7271 24.3297C10.3275 24.0577 9.99352 23.7001 9.74945 23.2829C9.50538 22.8657 9.35735 22.3993 9.31611 21.9177C9.27486 21.4361 9.34145 20.9513 9.51102 20.4986C9.68059 20.046 9.94889 19.6368 10.2964 19.3008C10.951 18.655 11.4096 17.8373 11.6193 16.942C11.829 16.0467 11.7812 15.1103 11.4814 14.241C11.3247 13.7916 11.2689 13.3131 11.318 12.8396C11.3672 12.3661 11.5201 11.9092 11.7659 11.5015C12.0215 11.0775 12.3674 10.7151 12.7792 10.44C13.1909 10.165 13.6582 9.98421 14.1478 9.91048C15.0589 9.76716 15.9121 9.37315 16.612 8.77255C17.3119 8.17194 17.8308 7.38843 18.1108 6.50968C18.2551 6.048 18.4985 5.62338 18.8239 5.26551C19.1493 4.90763 19.549 4.62513 19.9949 4.43774C20.4502 4.24333 20.9423 4.15056 21.4371 4.16589C21.9319 4.18122 22.4174 4.30427 22.8597 4.52648C23.688 4.93785 24.6137 5.11285 25.535 5.03225C26.4563 4.95164 27.3376 4.61855 28.0819 4.0696C28.4788 3.77403 28.9354 3.56859 29.4199 3.46759C29.9043 3.36659 30.405 3.37247 30.8869 3.48481C31.3586 3.59218 31.8012 3.80114 32.1838 4.09711C32.5664 4.39308 32.8798 4.76895 33.1023 5.1985C33.5315 6.01633 34.1801 6.69844 34.9752 7.16837C35.7704 7.63831 36.6807 7.87749 37.6042 7.85911C38.0978 7.84767 38.5878 7.9451 39.0395 8.14449C39.4912 8.34387 39.8935 8.64031 40.2176 9.01274C40.5312 9.37285 40.7614 9.79775 40.8917 10.2571C41.0221 10.7164 41.0495 11.1989 40.9718 11.6701C40.8293 12.5789 40.9469 13.5095 41.3109 14.3544C41.6748 15.1993 42.2704 15.9239 43.0288 16.4447C43.4284 16.7167 43.7623 17.0743 44.0064 17.4915C44.2505 17.9088 44.3985 18.3751 44.4398 18.8567C44.481 19.3384 44.4144 19.8231 44.2448 20.2758C44.0753 20.7284 43.807 21.1376 43.4595 21.4736C42.8049 22.1193 42.3463 22.937 42.1365 23.8323C41.9268 24.7276 41.9746 25.6639 42.2743 26.5331C42.431 26.9826 42.4868 27.4611 42.4377 27.9346C42.3885 28.4081 42.2356 28.865 41.9898 29.2726C41.7342 29.6967 41.3883 30.0592 40.9765 30.3342C40.5648 30.6092 40.0975 30.79 39.6079 30.8637C38.6968 31.007 37.8436 31.401 37.1437 32.0016C36.4438 32.6022 35.9249 33.3858 35.6449 34.2645C35.5006 34.7262 35.2572 35.1508 34.9318 35.5087C34.6064 35.8666 34.2067 36.1491 33.7608 36.3365C33.3056 36.5313 32.8134 36.6243 32.3186 36.609C31.8237 36.5937 31.3382 36.4704 30.896 36.2477C30.0677 35.8364 29.142 35.6615 28.2207 35.7421C27.2994 35.8227 26.4182 36.1559 25.674 36.7048ZM41.4629 43.7633C41.2799 43.7152 41.0857 43.7341 40.9154 43.8166C40.7451 43.8991 40.6098 44.0397 40.5341 44.2132L38.2981 49.3378L32.8923 38.1723C33.4051 38.1244 33.9074 37.9979 34.3817 37.7971C35.0398 37.5195 35.6294 37.1016 36.1095 36.5727C36.5896 36.0437 36.9485 35.4165 37.1613 34.7346C37.3527 34.1374 37.7067 33.6053 38.1838 33.1982C38.6608 32.791 39.2418 32.5249 39.8617 32.4297C40.1146 32.3879 40.364 32.3267 40.6075 32.2468L46.8708 45.1889L41.4629 43.7633Z" fill="white"/>
<path d="M38.7313 19.3504C38.5262 17.0059 37.6305 14.775 36.1574 12.9396C34.6844 11.1043 32.7002 9.74695 30.4558 9.03927C28.2113 8.3316 25.8074 8.30538 23.5481 8.96392C21.2887 9.62246 19.2754 10.9362 17.7627 12.739C16.25 14.5418 15.3058 16.7526 15.0496 19.092C14.7934 21.4314 15.2366 23.7942 16.3233 25.8817C17.41 27.9691 19.0912 29.6875 21.1545 30.8194C23.2178 31.9514 25.5704 32.4461 27.9148 32.241C31.0572 31.9625 33.9608 30.449 35.9886 28.0323C38.0164 25.6157 39.0027 22.4933 38.7313 19.3504ZM27.7765 30.6605C25.7447 30.8383 23.7058 30.4095 21.9176 29.4285C20.1294 28.4475 18.6723 26.9582 17.7306 25.1491C16.7888 23.34 16.4046 21.2922 16.6267 19.2647C16.8487 17.2373 17.667 15.3212 18.978 13.7588C20.289 12.1964 22.0339 11.0578 23.992 10.4871C25.9501 9.91632 28.0335 9.93904 29.9787 10.5524C31.9239 11.1657 33.6435 12.342 34.9201 13.9327C36.1968 15.5233 36.973 17.4568 37.1508 19.4886C37.386 22.2125 36.5311 24.9185 34.7737 27.0129C33.0163 29.1074 30.4999 30.4191 27.7765 30.6605Z" fill="white"/>
<path d="M32.9335 17.2165L29.0313 16.9937L27.0027 13.6532C26.9192 13.5363 26.8067 13.4432 26.6762 13.3832C26.5458 13.3231 26.4019 13.2981 26.2588 13.3106C26.1158 13.3231 25.9784 13.3727 25.8604 13.4545C25.7423 13.5364 25.6477 13.6475 25.5858 13.7771L24.168 17.4192L20.3638 18.3162C20.2197 18.35 20.0879 18.4236 19.9833 18.5285C19.8788 18.6334 19.8058 18.7655 19.7724 18.9098C19.7391 19.0541 19.7468 19.2048 19.7947 19.3449C19.8426 19.485 19.9287 19.609 20.0434 19.7027L23.0702 22.1763L22.7476 26.0713C22.7355 26.2187 22.7648 26.3665 22.8323 26.4981C22.8998 26.6298 23.0027 26.7399 23.1294 26.8161C23.2562 26.8923 23.4017 26.9316 23.5496 26.9295C23.6975 26.9273 23.8418 26.8839 23.9664 26.8041L27.2545 24.6909L30.8594 26.201C30.9959 26.258 31.1456 26.2757 31.2916 26.2521C31.4376 26.2285 31.5741 26.1646 31.6857 26.0675C31.7973 25.9705 31.8796 25.8441 31.9231 25.7028C31.9667 25.5615 31.9699 25.4108 31.9324 25.2677L30.9384 21.4879L33.4896 18.5263C33.5863 18.4141 33.6496 18.2771 33.6724 18.1308C33.6953 17.9845 33.6767 17.8347 33.6188 17.6984C33.5609 17.5621 33.466 17.4447 33.3449 17.3595C33.2237 17.2744 33.0813 17.2248 32.9335 17.2165ZM29.4643 20.7688C29.3805 20.8664 29.3216 20.9828 29.2928 21.1081C29.2639 21.2334 29.2659 21.3638 29.2986 21.4882L29.9897 24.1168L27.4825 23.0666C27.364 23.0169 27.2351 22.9968 27.1071 23.008C26.9791 23.0192 26.8557 23.0614 26.7476 23.1309L24.4611 24.6002L24.6853 21.8915C24.6959 21.7633 24.6752 21.6345 24.625 21.5161C24.5748 21.3978 24.4966 21.2933 24.3971 21.2118L22.2926 19.4915L24.938 18.8678C25.0632 18.8383 25.1794 18.7787 25.2765 18.6943C25.3735 18.6099 25.4486 18.5031 25.4951 18.3831L26.4811 15.8507L27.8919 18.1736C27.9586 18.2836 28.0511 18.3758 28.1613 18.4421C28.2716 18.5084 28.3963 18.5468 28.5248 18.5541L31.2383 18.7091L29.4643 20.7688Z" fill="white"/>
</g>
<defs>
<clipPath id="clip0_1_2021">
<rect width="50" height="50" fill="white" transform="translate(0 4.42464) scale(1.01537) rotate(-5)"/>
</clipPath>
</defs>
</svg>
