<svg width="32" height="32" viewBox="0 0 32 32" fill="none" xmlns="http://www.w3.org/2000/svg">
<path d="M7 6.5H25V24.5H7V6.5Z" fill="#FFBF00"/>
<path d="M22.6667 4.45303C24.6777 5.61417 26.3506 7.2804 27.5198 9.28676C28.6889 11.2931 29.3138 13.5701 29.3326 15.8921C29.3513 18.2142 28.7633 20.501 27.6267 22.526C26.4901 24.5509 24.8443 26.244 22.8523 27.4375C20.8603 28.6309 18.5912 29.2835 16.2695 29.3304C13.9478 29.3774 11.6541 28.8173 9.61541 27.7054C7.57675 26.5935 5.86383 24.9684 4.64623 22.9911C3.42862 21.0137 2.74855 18.7526 2.67334 16.4317L2.66667 15.9997L2.67334 15.5677C2.74801 13.265 3.41807 11.021 4.61819 9.05435C5.81831 7.08773 7.50754 5.46563 9.52119 4.3462C11.5348 3.22678 13.8042 2.64822 16.108 2.66694C18.4118 2.68567 20.6715 3.30102 22.6667 4.45303ZM20.9427 12.3904C20.7131 12.1608 20.4076 12.0229 20.0836 12.0025C19.7595 11.9821 19.4392 12.0807 19.1827 12.2797L19.0573 12.3904L14.6667 16.7797L12.9427 15.057L12.8173 14.9464C12.5608 14.7475 12.2405 14.6491 11.9165 14.6695C11.5926 14.6899 11.2872 14.8279 11.0577 15.0574C10.8282 15.2869 10.6902 15.5923 10.6698 15.9162C10.6494 16.2402 10.7478 16.5605 10.9467 16.817L11.0573 16.9424L13.724 19.609L13.8493 19.7197C14.0832 19.9011 14.3707 19.9996 14.6667 19.9996C14.9626 19.9996 15.2502 19.9011 15.484 19.7197L15.6093 19.609L20.9427 14.2757L21.0533 14.1504C21.2523 13.8938 21.3509 13.5735 21.3305 13.2495C21.3101 12.9254 21.1722 12.62 20.9427 12.3904Z" fill="white"/>
</svg>
