<svg width="55" height="55" viewBox="0 0 55 55" fill="none" xmlns="http://www.w3.org/2000/svg">
<g clip-path="url(#clip0_1_2057)">
<path d="M53.373 21.7758C53.289 21.1848 53.1925 19.5196 53.2488 18.9846C53.3084 18.4192 53.5491 17.2848 53.6648 16.7397C53.7299 16.4328 53.7409 16.38 53.7489 16.3131C53.8524 15.4508 53.3587 14.7798 52.8621 14.4395C52.6937 14.3241 52.521 14.2416 52.3497 14.1929C52.5867 13.8195 52.7782 13.3202 52.5914 12.7262C52.1153 11.212 53.5807 9.48889 51.2053 8.72698C49.728 8.25313 47.8269 10.1547 47.6997 11.6087C47.6357 12.3392 46.9985 12.686 46.4393 12.9985C45.9127 13.2928 45.4912 13.6343 45.1147 14.1036C44.3089 14.9868 43.1806 14.5525 42.6063 16.12C42.3876 16.7425 41.9347 17.3231 41.331 17.7545C40.5681 18.2997 40.3583 18.951 40.2195 19.3821C40.0909 19.7816 40.0677 19.8536 39.3689 19.9738C38.3526 20.1489 37.7415 20.8603 37.2954 21.3796C36.9234 21.8129 36.7263 22.0173 36.5276 22.0201C35.8266 22.0299 33.517 22.3163 33.2309 25.587C33.2208 25.7028 32.4308 26.2064 32.3143 26.3859C32.0548 26.7858 32.1145 27.7236 31.764 27.8774C31.5226 27.9833 31.0887 27.8276 30.8133 27.8622C29.9736 27.9512 29.4382 28.5684 29.0713 29.2752C27.8144 30.1953 26.187 30.6372 25.5484 30.2215C25.0593 29.903 24.5595 29.966 24.0139 29.9498C22.7922 29.8374 22.837 29.1751 21.0808 29.2468C20.1336 29.3306 19.5273 28.4185 18.5763 28.3943C18.0528 28.3719 17.682 28.7306 17.2006 28.7598C16.795 28.7843 16.1162 28.5101 15.7085 28.4357C15.2379 28.3498 14.7734 28.2432 14.3011 28.1627C13.1696 27.9699 11.9996 27.7701 9.96524 29.1965C9.94679 29.2094 9.92953 29.2211 9.91336 29.2319C9.31433 28.5085 8.74864 28.509 7.91615 28.2792C8.08417 27.7574 8.06304 27.1886 7.7638 26.7202C7.49109 26.2933 7.05588 26.2342 6.74482 25.9054C6.37024 25.5095 6.33342 24.9539 5.8302 24.5966C4.54862 23.6424 2.51078 24.5425 2.15958 26.0496C2.03347 26.5886 2.29458 26.9033 2.33149 27.3964C2.37436 27.9693 1.94063 28.4567 2.29662 29.0264L11.0833 43.0859C11.2245 43.3118 11.4505 43.4714 11.7106 43.5288L20.3606 45.4386C21.6572 45.6709 22.061 43.8358 20.7883 43.5014L12.545 41.6814L4.19346 28.3186C4.25643 28.0507 4.32301 27.778 4.32435 27.5009C4.32607 27.1147 3.8527 26.323 4.44744 26.2362C4.8438 26.1784 4.79828 26.503 4.95381 26.8011C5.16236 27.2009 5.44534 27.2942 5.7184 27.6066C5.77424 27.6706 5.95819 27.6791 5.99894 27.7527C6.04399 27.8342 5.88331 28.3097 5.88749 28.4394C5.90172 28.873 6.08503 29.2952 6.38209 29.6098C6.96738 30.2298 7.95511 29.9735 8.42169 30.5412C8.72972 30.9161 9.54819 31.9115 11.1042 30.8208C12.4705 29.8628 13.034 29.9587 13.9675 30.1183C14.8325 30.2657 15.6911 30.4416 16.5436 30.6411C16.987 30.7449 17.3892 30.7902 17.8377 30.6768C18.1324 30.6022 18.3606 30.4115 18.6404 30.4581C18.8257 30.4889 19.1017 30.7532 19.2512 30.8421C19.7437 31.1348 20.1871 31.2985 20.7663 31.2902C21.1401 31.2847 21.4677 31.1627 21.8399 31.273C23.1885 31.9979 22.9559 31.9397 24.5149 31.915C26.1607 32.9372 28.6852 32.0584 30.3496 30.7968C30.6185 30.593 30.7898 29.9609 31.0522 29.8323C31.1719 29.7737 31.4949 29.8622 31.6271 29.863C32.5558 29.8904 33.3937 29.517 33.7351 28.6053C34.0216 27.5537 33.6937 27.5877 34.6888 26.969C35.6695 25.8869 34.8147 24.0633 36.5556 24.0038C37.6704 23.9881 38.3235 23.2276 38.8004 22.6724C39.1675 22.245 39.4076 21.9804 39.7057 21.929C41.4426 21.6299 41.8448 20.8073 42.1079 19.9902C42.2092 19.6758 42.2554 19.5323 42.4846 19.3685C43.4174 18.7018 44.1254 17.7816 44.4782 16.7775C44.5942 16.4472 45.4499 16.3982 45.7455 16.236C46.2996 15.9319 46.5355 15.3614 47.0079 14.9798C47.5483 14.5432 48.2022 14.3696 48.6917 13.8465C48.9532 13.5671 49.1749 13.247 49.3438 12.9035C49.6965 12.1863 50.3973 11.3629 50.5947 10.5976C51.113 10.8303 50.5427 12.6899 50.6552 13.1623C50.6079 13.2282 50.5361 13.3148 50.483 13.3785C49.8873 13.9651 49.5451 15.1435 50.5938 15.8131C50.9969 16.1772 51.4097 16.2512 51.7476 16.2175C51.7405 16.251 51.7327 16.2881 51.7241 16.3282C51.5921 16.9504 51.3463 18.1086 51.2758 18.7768C51.1939 19.554 51.3148 21.3934 51.4088 22.0552C51.5141 22.7955 51.1238 22.9332 50.5603 23.3236C50.2197 23.5596 49.7893 23.8288 49.7041 23.2054C49.5909 22.3779 49.1222 21.7257 48.4184 21.4163C46.314 20.4913 43.894 23.0883 45.0142 25.1116C45.1834 25.417 44.9527 26.0961 44.8 26.5455C44.5339 27.3288 44.573 27.9146 44.7741 28.6875C44.8338 28.9169 45.1511 29.1869 45.1632 29.3998C45.1762 29.6285 44.8467 29.9699 44.8446 30.2661C44.8324 31.9183 46.8131 31.0691 47.2143 31.9413C47.9246 33.4858 45.0695 32.6315 44.6704 32.5319C43.0942 32.1384 42.0131 32.9532 42.3227 34.6152C42.3541 34.7846 42.4059 35.0621 42.3855 35.1691C41.4527 35.9242 41.5941 37.6241 41.0841 38.63C40.6217 39.542 39.9355 40.7103 39.2489 41.4699C38.6635 42.1175 38.2432 42.7207 38.1663 44.5945C38.145 45.1141 38.051 45.6271 37.9581 46.1378C37.9021 46.4454 37.9343 47.0424 37.6412 47.2231L29.5058 45.4268C28.9702 45.3083 28.4414 45.6466 28.3234 46.1815C28.2053 46.7165 28.5432 47.2458 29.0781 47.364L37.7273 49.2737C38.3874 49.4193 38.9991 48.7313 39.4041 48.2859C39.7873 47.8645 39.7742 47.2347 39.8724 46.6971C39.9946 46.0278 40.1205 45.3574 40.1484 44.676C40.2018 43.3741 40.3861 43.1703 40.7205 42.8003C41.3742 42.0775 41.7351 41.1882 42.2988 40.4046C43.1529 39.2172 43.2457 37.9357 43.7475 36.6132C44.462 35.9541 44.4117 35.0885 44.3169 34.5004C46.2999 35.2187 49.4025 34.806 49.233 31.9716C49.1869 31.2002 48.79 30.5806 48.1445 30.169C47.8577 30.0019 47.5527 29.8792 47.2294 29.8012C47.3257 29.4359 47.2859 29.0872 47.11 28.7551C46.8536 28.0879 46.4131 27.9645 46.6783 27.1835C46.9434 26.4032 47.344 25.2238 46.7496 24.1506C46.4711 23.6474 47.6449 22.7895 47.7385 23.4744C47.867 24.4135 48.4126 25.1587 49.1984 25.4678C50.4282 25.9515 51.4427 25.158 52.379 24.4622C53.2816 23.7915 53.5316 22.8915 53.373 21.7758Z" fill="white"/>
<path d="M25.0204 44.4434L25.0197 44.4434C24.474 44.3956 23.9933 44.7994 23.9455 45.3451C23.883 46.6602 25.7555 46.824 25.922 45.518C25.9698 44.9724 25.5661 44.4912 25.0204 44.4434Z" fill="white"/>
</g>
<defs>
<clipPath id="clip0_1_2057">
<rect width="50" height="50" fill="white" transform="translate(4.42464) scale(1.01537) rotate(5)"/>
</clipPath>
</defs>
</svg>
