<svg width="55" height="55" viewBox="0 0 55 55" fill="none" xmlns="http://www.w3.org/2000/svg">
<g clip-path="url(#clip0_1_2034)">
<path d="M46.9455 11.1833C42.5871 5.98922 36.467 2.80333 29.7124 2.21238C24.5729 1.76273 19.4903 2.86435 15.0141 5.398C14.5375 5.66775 14.3699 6.2728 14.6397 6.74939C14.9096 7.22589 15.5144 7.39347 15.9911 7.12383C20.1165 4.78862 24.8015 3.77345 29.5396 4.18798C42.3939 5.31259 51.9367 16.6852 50.8121 29.5396C49.6875 42.3939 38.3148 51.9367 25.4605 50.8121C12.6062 49.6875 3.06337 38.3148 4.18798 25.4605C4.60256 20.7218 6.41573 16.2845 9.43134 12.6283C9.77975 12.2058 9.71976 11.5808 9.29736 11.2324C8.87484 10.8841 8.25 10.9439 7.90149 11.3664C4.62934 15.3336 2.66208 20.1475 2.21238 25.2876C1.62143 32.0422 3.69617 38.6226 8.0545 43.8168C12.4129 49.0108 18.5331 52.1967 25.2876 52.7877C32.0422 53.3786 38.6226 51.3039 43.8168 46.9455C49.0108 42.5871 52.1967 36.467 52.7877 29.7124C53.3786 22.9578 51.3039 16.3775 46.9455 11.1833Z" fill="white"/>
<path d="M25.7196 47.8479C36.9399 48.8296 46.8668 40.4999 47.8485 29.2796C48.0525 26.9481 47.8532 24.6728 47.3107 22.5217C47.3091 22.5161 47.308 22.5103 47.3063 22.5048C45.2326 14.3116 38.1628 7.92776 29.2801 7.15063C18.0599 6.16899 8.13283 14.4987 7.15118 25.719C6.16953 36.9393 14.4993 46.8663 25.7196 47.8479ZM45.8729 29.1067C45.8315 29.5794 45.7726 30.0464 45.6967 30.5071C44.6551 30.4705 43.6308 30.5361 42.6336 30.6939C43.1909 28.017 43.0302 25.2067 42.176 22.6179C43.2979 22.9122 44.4134 23.2295 45.5213 23.5697C45.9093 25.3438 46.0393 27.2046 45.8729 29.1067ZM39.8307 22.0384C41.094 24.8929 41.3234 28.1774 40.4711 31.1924C35.803 32.6175 31.973 36.1278 30.1781 40.7186C27.6423 41.23 24.975 40.9966 22.5666 40.0526C21.5963 35.2201 18.434 31.0979 14.0843 28.8839C13.7685 25.767 14.5651 22.5716 16.3044 19.9802C20.248 19.7698 24.2087 19.8342 28.1403 20.1782C32.0719 20.5222 35.9835 21.1464 39.8307 22.0384ZM12.0412 28.0174C11.0865 27.6889 10.0893 27.4464 9.0571 27.3015C9.06241 26.8347 9.08543 26.3645 9.12678 25.8918C9.29319 23.9897 9.74438 22.1797 10.4345 20.5C11.5847 20.3574 12.7382 20.2385 13.8943 20.1436C12.6037 22.5447 11.9573 25.2847 12.0412 28.0174ZM9.14622 29.3217C16.3154 30.5196 21.4863 37.0734 20.8423 44.4351C20.8348 44.52 20.8258 44.605 20.8168 44.69C14.4107 42.1964 9.83154 36.2524 9.14622 29.3217ZM22.739 45.3185C22.7702 45.0817 22.7972 44.8444 22.8179 44.6079C22.8874 43.8136 22.8966 43.0278 22.8511 42.2544C23.9244 42.5906 25.0326 42.8093 26.1518 42.9073C27.2707 43.0051 28.4002 42.9822 29.5158 42.8375C29.3366 43.5912 29.2093 44.3667 29.1398 45.1611C29.1191 45.3976 29.1044 45.636 29.0941 45.8746C28.0458 45.965 26.9759 45.9671 25.8924 45.8723C24.809 45.7775 23.7557 45.5896 22.739 45.3185ZM31.0962 45.5893C31.1021 45.5041 31.108 45.4187 31.1154 45.3339C31.7594 37.9723 37.99 32.416 45.2582 32.4812C43.3797 39.1875 37.838 44.246 31.0962 45.5893ZM29.1073 9.12622C36.5077 9.77368 42.5145 14.7313 44.8699 21.3053C39.4728 19.7362 33.9125 18.6926 28.3131 18.2027C22.7136 17.7128 17.0565 17.7752 11.4691 18.3832C14.9304 12.3179 21.7069 8.47877 29.1073 9.12622Z" fill="white"/>
<path d="M22.5608 27.0669C22.3226 29.7903 24.3444 32.1997 27.0677 32.438C29.7911 32.6763 32.2006 30.6545 32.4388 27.9311C32.6771 25.2078 30.6553 22.7983 27.9319 22.56C25.2086 22.3218 22.7991 24.3435 22.5608 27.0669ZM27.7591 24.5356C29.3931 24.6786 30.6062 26.1243 30.4632 27.7583C30.3203 29.3923 28.8746 30.6054 27.2406 30.4624C25.6065 30.3194 24.3935 28.8738 24.5364 27.2397C24.6794 25.6057 26.1251 24.3927 27.7591 24.5356Z" fill="white"/>
<path d="M11.7335 9.8024C11.9865 9.82453 12.2479 9.75006 12.4577 9.57402C12.8772 9.22203 12.9319 8.59655 12.5799 8.17707C12.2279 7.75759 11.6025 7.70288 11.183 8.05485L11.1824 8.05531C10.7629 8.40729 10.7084 9.03249 11.0604 9.45197C11.2364 9.66186 11.4807 9.78028 11.7335 9.8024Z" fill="white"/>
</g>
<defs>
<clipPath id="clip0_1_2034">
<rect width="50" height="50" fill="white" transform="translate(4.42476) scale(1.01537) rotate(5)"/>
</clipPath>
</defs>
</svg>
