<svg width="39" height="39" viewBox="0 0 39 39" fill="none" xmlns="http://www.w3.org/2000/svg">
<g clip-path="url(#clip0_0_168)">
<path d="M13.3949 11.9281L3.02742 13.4312L2.8438 13.4686C2.56582 13.5424 2.31241 13.6886 2.10945 13.8924C1.90648 14.0962 1.76123 14.3502 1.68852 14.6284C1.61582 14.9067 1.61827 15.1992 1.69562 15.4763C1.77297 15.7533 1.92245 16.0048 2.1288 16.2051L9.63955 23.516L7.8683 33.8429L7.84717 34.0216C7.83016 34.3091 7.88985 34.596 8.02015 34.8528C8.15045 35.1096 8.34667 35.3272 8.58872 35.4833C8.83076 35.6394 9.10994 35.7283 9.39766 35.741C9.68538 35.7537 9.97131 35.6897 10.2262 35.5556L19.4984 30.6806L28.7495 35.5556L28.912 35.6304C29.1803 35.736 29.4718 35.7684 29.7566 35.7242C30.0415 35.68 30.3095 35.5609 30.5331 35.3789C30.7568 35.197 30.9279 34.9588 31.0292 34.6889C31.1304 34.419 31.1579 34.127 31.109 33.8429L29.3362 23.516L36.8502 16.2035L36.9769 16.0654C37.158 15.8424 37.2767 15.5753 37.321 15.2915C37.3652 15.0077 37.3335 14.7172 37.2289 14.4497C37.1244 14.1821 36.9508 13.9471 36.7258 13.7684C36.5009 13.5898 36.2326 13.474 35.9483 13.4329L25.5808 11.9281L20.9463 2.53561C20.8122 2.26348 20.6046 2.03432 20.347 1.87408C20.0894 1.71383 19.7921 1.62891 19.4887 1.62891C19.1853 1.62891 18.888 1.71383 18.6304 1.87408C18.3728 2.03432 18.1651 2.26348 18.031 2.53561L13.3949 11.9281Z" fill="#F68B2C"/>
</g>
<defs>
<clipPath id="clip0_0_168">
<rect width="39" height="39" fill="white"/>
</clipPath>
</defs>
</svg>
