<svg width="119" height="59" viewBox="0 0 119 59" fill="none" xmlns="http://www.w3.org/2000/svg">
<path d="M25.2494 36.5067C25.2494 37.2679 25.2368 38.0263 25.2579 38.7889C25.2663 39.0577 25.248 39.4086 25.6541 39.4242C26.8328 39.4694 28.0144 39.6322 29.1904 39.3534C29.6934 39.2346 30.0544 38.9841 30.2694 38.5186C30.6389 37.715 30.785 36.8661 30.6628 35.9917C30.49 34.748 29.6105 33.9571 28.3657 33.9203C27.4777 33.8934 26.587 33.9259 25.699 33.9075C25.3534 33.899 25.2269 34.0023 25.241 34.3631C25.2677 35.0776 25.2494 35.7936 25.2494 36.5109L25.2522 36.5081L25.2494 36.5067ZM36.4836 44.7965C36.4836 45.9722 36.492 47.0603 36.4738 48.1455C36.4738 48.2559 36.3094 48.4639 36.2279 48.461C34.9859 48.4157 33.7341 48.4271 32.5103 48.253C31.229 48.0719 30.3439 47.2145 29.699 46.1137C29.2044 45.2648 28.6958 44.4244 28.235 43.5584C28.0228 43.1609 27.7615 43.0052 27.3175 43.0335C26.8019 43.0675 26.2807 43.0647 25.7622 43.0335C25.3618 43.0095 25.2227 43.1311 25.2312 43.5528C25.255 44.9988 25.241 46.4462 25.2396 47.8922C25.2396 48.4511 25.2241 48.4639 24.6607 48.4667C23.3274 48.4667 21.9913 48.4511 20.658 48.4766C20.2365 48.4851 20.1367 48.3337 20.1367 47.9389C20.1466 42.2129 20.1466 36.4883 20.1367 30.7608C20.1367 30.4029 20.2547 30.3024 20.5976 30.2996C23.1153 30.2812 25.6344 30.2472 28.1521 30.2175C30.3635 30.1906 32.3094 30.9136 33.9799 32.3653C35.0309 33.2765 35.635 34.4409 35.7558 35.8403C35.9469 38.0687 35.1714 39.8981 33.4685 41.3314C32.8897 41.8196 32.8475 41.8479 33.1538 42.5298C33.4756 43.2472 33.8296 43.9575 34.2652 44.6083C34.3986 44.8064 34.8384 44.8474 35.1447 44.8658C35.5816 44.8899 36.0228 44.8262 36.4864 44.7979L36.4836 44.7951V44.7965Z" fill="white"/>
<path d="M5.3416 39.1876C5.3416 40.7821 5.33879 42.3781 5.3416 43.9727C5.3416 44.6391 5.44838 44.7735 6.09607 44.7976C6.78732 44.8245 7.48138 44.8287 8.17263 44.8004C9.70546 44.7396 10.755 43.8652 11.4448 42.5918C12.1754 41.2377 12.1726 39.7139 12.0321 38.2255C11.8284 36.0961 10.5934 34.5397 8.67701 34.0784C7.7708 33.8591 6.79575 33.9285 5.85301 33.8521C5.46805 33.8209 5.33177 33.9596 5.33458 34.3586C5.35284 35.9687 5.34301 37.5788 5.34301 39.1876H5.3416ZM0.269637 39.3305C0.269637 36.4851 0.279472 33.637 0.259803 30.7917C0.256993 30.3205 0.41435 30.2172 0.844272 30.2229C2.76909 30.2441 4.69531 30.2285 6.62013 30.2469C8.65875 30.2681 10.6594 30.4761 12.5168 31.4425C13.756 32.0877 14.7718 32.9649 15.5375 34.135C15.5797 34.1987 15.619 34.261 15.6626 34.319C17.135 36.1526 17.3921 38.2948 17.1111 40.5232C16.566 44.8542 13.3991 47.9301 9.06619 48.3164C7.49121 48.4593 5.90219 48.4268 4.31737 48.4593C3.16248 48.4805 2.00759 48.4565 0.851298 48.4876C0.41154 48.5003 0.262613 48.3744 0.264018 47.9132C0.282283 45.0523 0.273853 42.1899 0.273853 39.3291H0.265423H0.268233L0.269637 39.3305Z" fill="white"/>
<path d="M97.6947 48.4359C96.2279 48.4359 94.7611 48.4302 93.2943 48.4415C92.9978 48.4415 92.8643 48.3651 92.87 48.0411C92.8882 47.1328 92.8882 46.223 92.8798 45.3146C92.877 45.0331 92.9739 44.8958 93.2563 44.893C94.2314 44.8845 95.205 44.8718 96.1829 44.8647C97.4404 44.8548 98.7006 44.8491 99.9581 44.8364C100.388 44.8307 100.819 44.8364 101.246 44.8025C101.992 44.7416 102.262 44.46 102.341 43.7229C102.375 43.3989 102.446 43.0749 102.453 42.748C102.474 41.8439 102.005 41.2469 101.114 41.162C100.187 41.0757 99.2514 41.0756 98.3199 41.07C96.7477 41.0615 95.3048 40.6936 94.0628 39.6707C92.4414 38.3378 91.7811 35.9453 92.5047 33.9616C93.2381 31.9482 95.3863 30.365 97.5471 30.3183C100.299 30.2603 103.056 30.2603 105.811 30.215C106.214 30.2093 106.317 30.3551 106.304 30.7371C106.273 31.6143 106.265 32.4972 106.286 33.3744C106.296 33.7805 106.179 33.9149 105.762 33.9121C103.435 33.8937 101.11 33.9022 98.7835 33.9036C97.5022 33.9036 96.8742 34.7539 97.2254 36.0005C97.5738 37.2314 97.6132 37.2498 98.8889 37.2908C100.191 37.3333 101.504 37.3121 102.786 37.4889C104.129 37.6757 105.39 38.2869 106.247 39.3495C107.556 40.9695 107.78 42.8513 107.01 44.8109C106.091 47.1427 104.322 48.3 101.879 48.4104C100.491 48.4741 99.094 48.4203 97.7031 48.4203V48.4359L97.6947 48.4387V48.4359Z" fill="white"/>
<path d="M70.9342 30.4682C70.746 31.0328 70.5704 31.5803 70.3821 32.1222C69.1373 35.7075 67.8911 39.2943 66.6435 42.8796C66.243 44.0341 65.8553 45.1901 65.4366 46.3361C64.994 47.5374 64.0667 48.2179 62.8936 48.5731C61.9059 48.8702 60.9027 48.8504 59.9122 48.5547C58.7236 48.201 57.8933 47.4426 57.4704 46.2725C56.6737 44.0596 55.8954 41.8411 55.1184 39.6197C54.1097 36.7404 53.1093 33.8569 52.1034 30.9747C52.0514 30.8219 52.0064 30.6663 51.9277 30.4187C52.3858 30.355 52.8129 30.2418 53.2372 30.2475C54.2853 30.256 55.3348 30.3154 56.3829 30.3607C57.0433 30.3876 57.3341 30.8347 57.5013 31.3936C58.7377 35.5774 59.9684 39.7612 61.2048 43.945C61.2497 44.0921 61.3144 44.235 61.372 44.3794C61.4141 44.385 61.4591 44.3921 61.4998 44.3978C61.6094 44.1685 61.7513 43.9478 61.8216 43.7073C62.6041 41.0516 63.3769 38.393 64.1552 35.7344C64.6189 34.1483 65.0825 32.5622 65.5462 30.9762C65.7063 30.4357 65.9915 30.1994 66.5395 30.2178C67.915 30.2673 69.2876 30.3338 70.6631 30.3975C70.7333 30.4003 70.8022 30.4314 70.9328 30.4654L70.9342 30.4682Z" fill="white"/>
<path d="M84.2312 34.1468V30.7921C84.2312 30.413 84.4124 30.212 84.8016 30.2149C86.1349 30.2205 87.4682 30.2248 88.8016 30.2177C89.1163 30.2177 89.2554 30.3153 89.2469 30.6549C89.2076 32.7263 89.2652 34.8019 89.1373 36.8676C88.9378 40.0299 87.2743 42.1579 84.3169 43.2389C83.9108 43.386 83.7774 43.5756 83.7858 44.0029C83.8125 45.3287 83.7858 46.6558 83.8012 47.9816C83.8069 48.3452 83.6917 48.4881 83.3193 48.4824C81.9411 48.4697 80.5642 48.4697 79.1859 48.4824C78.8094 48.4853 78.6675 48.3565 78.6731 47.9603C78.6942 46.619 78.6703 45.2777 78.6885 43.9364C78.6942 43.5728 78.6 43.3804 78.2305 43.2544C76.4574 42.6375 75.0553 41.5622 74.1758 39.8531C73.6095 38.7523 73.4086 37.5666 73.3791 36.3541C73.3314 34.4907 73.3398 32.6287 73.3117 30.7653C73.3061 30.4512 73.4424 30.3252 73.7262 30.3252C75.162 30.3167 76.5951 30.3153 78.0296 30.3097C78.3724 30.3097 78.3303 30.5445 78.3289 30.7766C78.3134 32.265 78.2839 33.7563 78.3022 35.2448C78.312 36.0612 78.3991 36.8804 78.4806 37.6954C78.5902 38.823 79.4964 39.6974 80.7328 39.8658C81.1543 39.9238 81.5898 39.9606 82.0113 39.921C83.3025 39.7993 84.1511 38.3264 84.1651 37.2751C84.1778 36.2324 84.1679 35.1882 84.1679 34.1454H84.234L84.2312 34.1468Z" fill="white"/>
<path d="M44.2284 48.4627C42.5551 48.4627 40.8776 48.4527 39.2042 48.4711C38.8249 48.4768 38.683 48.3764 38.6928 47.9703C38.7111 47.0619 38.6844 46.1522 38.6661 45.2452C38.6605 44.9113 38.8502 44.8533 39.1242 44.8575C39.821 44.8731 40.5179 44.8759 41.212 44.9C41.552 44.9099 41.6882 44.7755 41.6882 44.4288C41.6882 42.0447 41.6967 39.6592 41.7009 37.2723C41.7009 36.3187 41.6798 35.3651 41.7107 34.4114C41.7262 33.9799 41.566 33.8766 41.174 33.8922C40.4772 33.9191 39.7803 33.8922 39.0834 33.9021C38.7982 33.9078 38.69 33.7988 38.6928 33.5102C38.6985 32.5721 38.6928 31.6312 38.6718 30.6931C38.6661 30.4087 38.7532 30.3012 39.0469 30.2984C42.1716 30.28 45.2962 30.2503 48.4251 30.2305C48.6611 30.2305 48.8972 30.2729 49.1318 30.297C49.6264 30.3451 49.8736 30.6252 49.8736 31.1374C49.8736 31.9114 49.868 32.6895 49.8863 33.4635C49.8947 33.7931 49.7837 33.9134 49.4521 33.9063C48.7426 33.8879 48.0303 33.9191 47.3194 33.8936C46.9471 33.8809 46.8431 34.0068 46.8431 34.3761C46.8529 37.2978 46.8431 40.2196 46.8431 43.1427C46.8431 43.5007 46.8487 43.86 46.8248 44.2152C46.8066 44.4897 46.9162 44.6552 47.1761 44.6863C47.8336 44.7627 48.4911 44.8519 49.1515 44.8787C49.8638 44.9056 49.8821 44.8943 49.8764 45.5961C49.8708 46.387 49.8427 47.1765 49.8764 47.9646C49.8947 48.4075 49.7191 48.4782 49.3369 48.4726C47.6313 48.457 45.9285 48.4641 44.2242 48.4641H44.227L44.2284 48.4627Z" fill="white"/>
<path d="M116.361 30.4288C116.361 32.4704 116.37 34.515 116.353 36.5566C116.35 37.0363 116.507 37.3702 116.895 37.6503C117.304 37.9432 117.66 38.3068 118.056 38.6195C118.792 39.2039 118.977 40.0288 118.986 40.8904C119.013 43.2165 118.991 45.544 118.998 47.8672C118.998 48.1884 118.868 48.2577 118.571 48.2705C116.766 48.337 114.962 48.436 113.157 48.4968C112.523 48.5181 111.886 48.4516 111.25 48.4332C110.986 48.4247 110.889 48.3086 110.892 48.0455C110.925 45.4053 110.944 42.768 110.999 40.1278C111.004 39.8618 111.18 39.5477 111.371 39.3482C111.805 38.8869 112.274 38.4469 112.78 38.0677C113.254 37.714 113.492 37.2825 113.485 36.708C113.433 32.5638 113.425 28.4196 113.297 24.2797C113.216 21.7004 112.888 19.1394 112.066 16.6705C111.26 14.2496 109.797 12.423 107.354 11.5457C105.591 10.9133 103.742 10.7577 101.877 10.7732C101.508 10.776 101.136 10.7817 100.766 10.8157C100.484 10.8425 100.345 10.7237 100.308 10.4619C100.229 9.91721 100.162 9.37107 100.093 8.82634C100.048 8.48394 100.217 8.3 100.544 8.31981C101.553 8.38065 102.566 8.3467 103.572 8.47545C104.575 8.60138 105.568 8.79097 106.548 9.0414C107.42 9.26496 108.302 9.51822 109.13 9.88185C109.952 10.2356 110.743 10.6699 111.466 11.1991C112.027 11.608 112.522 12.1188 112.942 12.672C113.508 13.4148 113.929 14.2552 114.302 15.1098C114.678 15.9715 115.056 16.8332 115.289 17.7415C115.444 18.3471 115.553 18.964 115.65 19.5837C115.975 21.6551 116.151 23.7463 116.245 25.8389C116.3 27.0529 116.329 28.2682 116.344 29.485C116.35 29.7992 116.344 30.1118 116.344 30.4259H116.363L116.361 30.4288Z" fill="white"/>
<path d="M57.1744 16.1204C57.9654 20.6806 62.2956 23.7452 66.8294 22.95L88.9719 19.069C92.7231 18.4125 95.5542 15.2913 95.8604 11.481C95.9757 10.0604 95.727 8.62292 95.1397 7.32264C93.5703 3.8392 89.8556 1.86827 86.1057 2.52478L63.9633 6.4058C59.4294 7.20097 56.382 11.5574 57.173 16.1176V16.1204H57.1744ZM95.8014 9.35159C95.9223 10.0548 95.956 10.7721 95.8984 11.4852C95.5921 15.3139 92.7442 18.4493 88.9775 19.1072L66.8351 22.9882C62.2801 23.7862 57.9289 20.7088 57.1351 16.1275C56.3413 11.5461 59.4013 7.16984 63.9563 6.37043L86.0987 2.48941C89.8654 1.82866 93.5984 3.81232 95.1748 7.3085C95.4685 7.95934 95.6778 8.64698 95.8014 9.35017V9.35159Z" fill="#0E1038"/>
<path d="M88.2675 15.7096C91.0338 15.7096 93.2763 13.4538 93.2763 10.6712C93.2763 7.88858 91.0338 5.63281 88.2675 5.63281C85.5013 5.63281 83.2588 7.88858 83.2588 10.6712C83.2588 13.4538 85.5013 15.7096 88.2675 15.7096Z" fill="#00A450"/>
<path d="M83.3504 11.5329C83.8225 14.2594 86.4119 16.0917 89.1235 15.6163C91.8351 15.1423 93.6545 12.5361 93.1839 9.80958C92.7118 7.0831 90.1224 5.25082 87.4108 5.72622C84.6992 6.20021 82.8798 8.80643 83.3504 11.5329ZM93.2218 9.80109C93.6981 12.5488 91.8618 15.1734 89.1305 15.653C86.3978 16.1327 83.7888 14.2863 83.3125 11.5371C82.8362 8.78944 84.6725 6.16484 87.4038 5.68519C90.1365 5.20555 92.7455 7.05197 93.2218 9.80109Z" fill="#00A450"/>
<path d="M86.1036 2.50798C89.862 1.84864 93.5851 3.82807 95.1587 7.31575C95.7404 8.60896 95.9947 10.0663 95.8795 11.4812C95.5732 15.3014 92.7337 18.4297 88.974 19.0876L66.8316 22.9686C62.2865 23.7638 57.9465 20.6949 57.1527 16.1234C56.3617 11.5519 59.4133 7.18558 63.9584 6.38759L86.1008 2.50656H86.1036V2.50798ZM54.8219 16.5295C55.8377 22.3942 61.407 26.336 67.2376 25.3145L89.38 21.4335C94.2019 20.5874 97.8436 16.5747 98.2384 11.6736C98.2469 11.5703 98.2539 11.4713 98.2595 11.368C98.3016 10.5587 98.2511 9.74793 98.1134 8.94428C97.9743 8.14345 97.7467 7.36103 97.4348 6.61539C97.3954 6.52059 97.3561 6.42862 97.314 6.33382C95.295 1.85431 90.5167 -0.682581 85.6962 0.16069L63.5538 4.04171C57.7231 5.06467 53.8047 10.6662 54.8205 16.5309L54.8219 16.5295Z" fill="white"/>
<path d="M64.4697 19.8795C67.2359 19.8795 69.4784 17.6238 69.4784 14.8411C69.4784 12.0585 67.2359 9.80273 64.4697 9.80273C61.7034 9.80273 59.4609 12.0585 59.4609 14.8411C59.4609 17.6238 61.7034 19.8795 64.4697 19.8795Z" fill="#DA1F26"/>
<path d="M59.5559 15.7028C60.028 18.4293 62.6174 20.2616 65.329 19.7862C68.0406 19.3122 69.86 16.706 69.3894 13.9795C68.9173 11.253 66.3279 9.42075 63.6163 9.89615C60.9047 10.3701 59.0853 12.9763 59.5559 15.7028ZM69.4259 13.971C69.9022 16.7187 68.0659 19.3433 65.3346 19.823C62.6033 20.3026 59.9929 18.4562 59.5166 15.7071C59.0403 12.9594 60.8766 10.3348 63.6079 9.85511C66.3406 9.37547 68.9496 11.2219 69.4259 13.971Z" fill="#5C0F22"/>
<path d="M75.51 7.79017C72.7857 8.26699 70.9607 10.8774 71.4341 13.6181C71.9076 16.3587 74.504 18.1952 77.2282 17.7184C79.9525 17.2416 81.7776 14.6311 81.3041 11.8905C80.8306 9.14987 78.2342 7.31336 75.51 7.79017Z" fill="#F68C2D"/>
<path d="M71.4524 13.616C71.9245 16.3425 74.5139 18.1748 77.2255 17.6994C79.9371 17.2254 81.7565 14.6192 81.2859 11.8927C80.8138 9.16621 78.2244 7.33393 75.5156 7.80933C72.804 8.28332 70.9846 10.8895 71.4552 13.616H71.4524ZM81.3224 11.887C81.7987 14.6347 79.9624 17.2593 77.2311 17.739C74.4984 18.2186 71.8894 16.3722 71.4131 13.6231C70.9368 10.8754 72.7731 8.25078 75.5044 7.77113C78.2371 7.29148 80.8461 9.13791 81.3196 11.887H81.3224Z" fill="#F68C2D"/>
<path d="M76.7073 14.0399C76.113 14.1828 75.1956 14.1531 75.0804 13.7923L75.1324 13.3027C75.4808 13.4272 75.9754 13.4244 76.5289 13.2928C77.0825 13.1612 77.5264 12.9377 77.7807 12.6689L78.0477 13.082C78.1053 13.4584 77.3017 13.8984 76.7059 14.0413L76.7073 14.0399ZM75.3459 11.3488C75.5525 11.3771 75.7941 11.3615 76.0582 11.2992C76.3224 11.2356 76.5458 11.1408 76.7158 11.0205L77.0853 11.5921C76.9406 11.7817 76.6244 11.9529 76.2339 12.0449C75.8433 12.1369 75.485 12.1298 75.2701 12.0265L75.3431 11.3488H75.3459ZM79.1885 12.55L77.8004 12.2232L76.4221 10.0909C76.2676 9.85324 75.9824 9.73721 75.707 9.80371C75.4316 9.87021 75.2279 10.1037 75.1956 10.3866L74.9202 12.9136L73.8285 13.8361C73.6712 13.9677 73.6038 14.1757 73.6501 14.3766C73.6979 14.5775 73.8524 14.7317 74.0505 14.7799L76.2016 15.2864C76.4629 15.3472 76.7411 15.3472 77.0038 15.2864C77.2651 15.2255 77.5124 15.0996 77.7189 14.9256L79.4105 13.5008C79.5679 13.3692 79.6353 13.1612 79.5889 12.9603C79.5412 12.7594 79.3866 12.6052 79.1885 12.5571V12.5514V12.55Z" fill="#BA5909"/>
<path d="M66.9401 15.3947C66.919 15.4287 66.8923 15.4499 66.8558 15.4612L66.3247 15.5857C66.246 15.6041 66.2011 15.5772 66.2278 15.5249C66.246 15.4754 66.3697 15.3169 66.4371 15.2929L66.7771 15.1669C66.7771 15.1669 66.7898 15.1613 66.7954 15.1613C66.8249 15.1528 66.8558 15.1613 66.8769 15.174C66.9106 15.1896 66.9317 15.2221 66.9429 15.2589L66.9584 15.2929C66.9668 15.3296 66.9583 15.3693 66.9373 15.3961H66.9401V15.3947ZM62.7097 14.8939C62.5425 14.925 62.3852 14.9858 62.2278 15.0594C62.2517 14.9703 62.277 14.8882 62.2952 14.8019C62.3585 14.5147 62.4203 14.2331 62.4807 13.9459C62.5116 13.8171 62.5509 13.6926 62.5903 13.5724C62.6451 13.4139 62.7757 13.3007 62.9359 13.2696L65.063 12.7715C65.1501 12.7503 65.2471 12.7447 65.33 12.756C65.4002 12.7687 65.4761 12.7984 65.5295 12.838C65.6503 12.93 65.7571 13.0361 65.847 13.1592C66.0746 13.4549 66.3022 13.752 66.5284 14.0478L66.5411 14.069C66.4778 14.0605 66.4104 14.0605 66.3528 14.069C66.2137 14.0874 66.0704 14.1185 65.9313 14.1454L62.7069 14.8995L62.7097 14.8967V14.8939ZM63.0005 16.3455L62.4765 16.4672C62.4034 16.4828 62.3247 16.4361 62.3093 16.3625L62.2995 16.3201C62.291 16.2833 62.2995 16.2437 62.3205 16.2168C62.3444 16.1885 62.3781 16.1673 62.4076 16.1673L62.7687 16.1276C62.8502 16.1177 63.0202 16.204 63.0595 16.2408C63.1073 16.2833 63.0806 16.3271 63.0019 16.3455H63.0005ZM67.4487 13.5059C67.4192 13.4747 67.3812 13.4691 67.3433 13.4846C67.1438 13.5398 66.9345 13.5794 66.735 13.6275C66.7139 13.6332 66.6984 13.6275 66.6858 13.6091C66.6619 13.5695 66.6282 13.5243 66.5973 13.4846C66.4188 13.237 66.2545 12.9809 66.0676 12.7362C65.788 12.3754 65.4199 12.2254 64.9647 12.3414L63.5738 12.6654C63.3096 12.7291 63.0427 12.7814 62.78 12.8578C62.5341 12.9314 62.329 13.0998 62.2166 13.3318C62.1463 13.4761 62.0985 13.6346 62.0747 13.7987C62.0171 14.1072 61.9679 14.4071 61.9173 14.7156C61.9173 14.734 61.9075 14.7495 61.8906 14.7552H61.8808L61.2724 14.8981C61.2359 14.8981 61.2022 14.9222 61.1881 14.9561C61.1727 14.9901 61.1755 15.0269 61.1881 15.0608C61.2457 15.1768 61.3089 15.29 61.3722 15.3976C61.4087 15.4584 61.4818 15.4839 61.545 15.4641L61.7965 15.4061C61.7937 15.4216 61.7965 15.4301 61.788 15.4372C61.7613 15.6183 61.7403 15.7909 61.715 15.9692C61.715 15.9932 61.7094 16.0173 61.715 16.0371L62.0943 17.6812C62.1028 17.718 62.121 17.7576 62.1421 17.7915C62.1786 17.8524 62.2264 17.8948 62.291 17.9161C62.3486 17.9401 62.4189 17.9472 62.4821 17.9316L62.9696 17.8184C63.0399 17.8029 63.1087 17.7632 63.1537 17.6996C63.2014 17.6444 63.2211 17.5708 63.2197 17.4944C63.2141 17.4336 63.2071 17.3685 63.193 17.3105L63.1621 17.1732L66.638 16.3611L66.6858 16.5634C66.7434 16.8082 66.9007 16.9002 67.1368 16.845L67.488 16.7629C67.5246 16.7544 67.5541 16.7474 67.5878 16.7318C67.6552 16.7007 67.7114 16.6497 67.7508 16.579C67.7873 16.5111 67.7929 16.4318 67.7774 16.3597L67.4079 14.7609C67.3953 14.7029 67.3742 14.6477 67.3475 14.5996C67.2984 14.5133 67.2478 14.4255 67.1902 14.3421C67.1536 14.2812 67.1199 14.2289 67.0834 14.1709L67.3349 14.1128C67.4079 14.1029 67.4627 14.0449 67.4684 13.9685C67.4768 13.844 67.4782 13.7238 67.4894 13.6077C67.495 13.5681 67.4796 13.5342 67.4529 13.5101L67.4501 13.5044L67.4487 13.5059Z" fill="#A50410"/>
<path d="M64.4989 13.464L63.8175 13.6225C63.7753 13.6324 63.736 13.6069 63.7261 13.5645L63.6896 13.4088C63.6798 13.3664 63.7051 13.3268 63.7472 13.3168L64.4286 13.1584C64.4708 13.1485 64.5101 13.1739 64.52 13.2164L64.5565 13.372C64.5663 13.4145 64.541 13.4541 64.4989 13.464Z" fill="#A50410"/>
<path d="M87.1535 11.5377C87.1956 11.2378 87.2715 10.9449 87.3839 10.6633L87.7014 10.7893C87.5988 11.0454 87.5314 11.3142 87.4921 11.5844L87.1535 11.5363V11.5377ZM87.4794 12.3909C87.5005 12.589 87.537 12.7857 87.5918 12.9781L87.6438 13.1677L87.3164 13.2625L87.2645 13.0729C87.2041 12.8621 87.1619 12.6428 87.1408 12.4277L87.4794 12.3937V12.3909ZM89.9199 8.77306C89.7105 8.8339 89.5054 8.91314 89.3115 9.01076L89.157 8.70515C89.3691 8.59762 89.5939 8.50989 89.8243 8.44198L89.955 8.40519L90.0491 8.73486L89.9185 8.77165V8.77448L89.9199 8.77306ZM88.6343 9.46918C88.432 9.64604 88.2494 9.84555 88.0948 10.0649L87.8166 9.86393C87.9894 9.62199 88.1889 9.39986 88.4109 9.20743L88.6329 9.46494V9.46777L88.6343 9.46918ZM89.4352 7.48269C88.8268 7.65672 88.269 7.94677 87.7801 8.34153C87.308 8.72355 86.9188 9.19045 86.6224 9.72528C86.3259 10.2601 86.1377 10.8374 86.0646 11.4429C85.9887 12.0697 86.0351 12.6994 86.2093 13.3106L86.3344 13.7563C86.4257 14.0746 86.7559 14.2628 87.0762 14.1694L88.3646 13.8001C88.6821 13.7082 88.8675 13.3757 88.7762 13.0545L88.6512 12.6088C88.3266 11.4599 88.9898 10.2615 90.1306 9.93468L90.5732 9.80876C90.8907 9.71679 91.0762 9.38429 90.9848 9.06311L90.6181 7.76708C90.5268 7.44874 90.1967 7.26055 89.8763 7.35393L89.4337 7.47986L89.4366 7.48269H89.4352Z" fill="#00602B"/>
<path d="M0.345624 58.9997H118.417L116.959 56.2378L118.742 51.8828H0L2.09622 56.2378L0.345624 58.9997Z" fill="#F68C2D"/>
<path d="M6.8457 53.9414H7.66059L8.23101 55.1823L8.79721 53.9414H9.60086L8.58225 55.9222V56.8999H7.86431V55.9222L6.8457 53.9414Z" fill="black"/>
<path d="M13.8778 56.2754C14.3471 56.2754 14.6534 55.9331 14.6534 55.4138C14.6534 54.8945 14.3471 54.5521 13.8778 54.5521C13.4086 54.5521 13.0967 54.8846 13.0967 55.4138C13.0967 55.943 13.3973 56.2754 13.8778 56.2754ZM13.8778 56.932C13.0419 56.932 12.3633 56.3052 12.3633 55.4138C12.3633 54.5224 13.0419 53.8984 13.8778 53.8984C14.7138 53.8984 15.384 54.5224 15.384 55.4138C15.384 56.3052 14.7138 56.932 13.8778 56.932Z" fill="black"/>
<path d="M18.3672 53.9414H19.0851V55.7114C19.0851 56.0623 19.2579 56.2647 19.5965 56.2647C19.9351 56.2647 20.115 56.0623 20.115 55.7114V53.9414H20.8329V55.71C20.8329 56.5292 20.2625 56.9325 19.5839 56.9325C18.9053 56.9325 18.3686 56.5264 18.3686 55.71V53.9414H18.3672Z" fill="black"/>
<path d="M25.0944 54.5413H24.649V55.277H25.0944C25.3614 55.277 25.4878 55.137 25.4878 54.9049C25.4878 54.6856 25.3628 54.5413 25.0944 54.5413ZM25.1366 53.9414C25.8573 53.9414 26.2184 54.3574 26.2184 54.8738C26.2184 55.2459 26.0161 55.5954 25.5637 55.7298L26.2423 56.9028H25.433L24.8204 55.785H24.6476V56.9028H23.9297V53.9414H25.1366Z" fill="black"/>
<path d="M33.9118 54.5413H33.4664V55.277H33.9118C34.1787 55.277 34.3052 55.137 34.3052 54.9049C34.3052 54.6856 34.1801 54.5413 33.9118 54.5413ZM33.9539 53.9414C34.6747 53.9414 35.0358 54.3574 35.0358 54.8738C35.0358 55.2459 34.8335 55.5954 34.3811 55.7298L35.0597 56.9028H34.2504L33.6378 55.785H33.465V56.9028H32.7471V53.9414H33.9539Z" fill="black"/>
<path d="M39.4755 56.2754C39.9448 56.2754 40.251 55.9331 40.251 55.4138C40.251 54.8945 39.9448 54.5521 39.4755 54.5521C39.0062 54.5521 38.6943 54.8846 38.6943 55.4138C38.6943 55.943 38.995 56.2754 39.4755 56.2754ZM39.4755 56.932C38.6395 56.932 37.9609 56.3052 37.9609 55.4138C37.9609 54.5224 38.6395 53.8984 39.4755 53.8984C40.3115 53.8984 40.9816 54.5224 40.9816 55.4138C40.9816 56.3052 40.3115 56.932 39.4755 56.932Z" fill="black"/>
<path d="M45.259 54.7394L44.8979 55.8218H45.6229L45.259 54.7394ZM45.8069 56.3807H44.7096L44.534 56.9028H43.7852L44.8515 53.9414H45.6819L46.7482 56.9028H45.9882L45.8125 56.3807H45.8069Z" fill="black"/>
<path d="M50.7186 56.2774C51.2582 56.2774 51.5785 55.9661 51.5785 55.4214C51.5785 54.8766 51.2596 54.5569 50.7186 54.5569H50.3786V56.2774H50.7186ZM52.3077 55.4214C52.3077 56.2986 51.7049 56.9028 50.765 56.9028H49.6621V53.9414H50.765C51.7049 53.9414 52.3077 54.5399 52.3077 55.4228V55.4214Z" fill="black"/>
<path d="M58.6366 53.9414H60.9127V54.5173H60.1315V56.8999H59.415V54.5173H58.6338V53.9414H58.6366Z" fill="black"/>
<path d="M65.2607 56.2754C65.7299 56.2754 66.0362 55.9331 66.0362 55.4138C66.0362 54.8945 65.7299 54.5521 65.2607 54.5521C64.7914 54.5521 64.4795 54.8846 64.4795 55.4138C64.4795 55.943 64.7802 56.2754 65.2607 56.2754ZM65.2607 56.932C64.4247 56.932 63.7461 56.3052 63.7461 55.4138C63.7461 54.5224 64.4247 53.8984 65.2607 53.8984C66.0966 53.8984 66.7668 54.5224 66.7668 55.4138C66.7668 56.3052 66.0966 56.932 65.2607 56.932Z" fill="black"/>
<path d="M73.0907 53.9414H75.3668V54.5173H74.5856V56.8999H73.8677V54.5173H73.0879V53.9414H73.0907Z" fill="black"/>
<path d="M80.1577 55.6831H79.0422V56.9028H78.3242V53.9414H79.0422V55.1002H80.1577V53.9414H80.8757V56.9028H80.1577V55.6831Z" fill="black"/>
<path d="M85.7895 54.521H84.702V55.1195H85.6644V55.6755H84.702V56.3235H85.7895V56.9008H83.9883V53.9395H85.7895V54.5167V54.521Z" fill="black"/>
<path d="M93.5007 54.5413H93.0553V55.277H93.5007C93.7676 55.277 93.8941 55.137 93.8941 54.9049C93.8941 54.6856 93.769 54.5413 93.5007 54.5413ZM93.5428 53.9414C94.2636 53.9414 94.6246 54.3574 94.6246 54.8738C94.6246 55.2459 94.4223 55.5954 93.9699 55.7298L94.6485 56.9028H93.8393L93.2267 55.785H93.0539V56.9028H92.3359V53.9414H93.5428Z" fill="black"/>
<path d="M99.0614 56.2754C99.5307 56.2754 99.837 55.9331 99.837 55.4138C99.837 54.8945 99.5307 54.5521 99.0614 54.5521C98.5922 54.5521 98.2803 54.8846 98.2803 55.4138C98.2803 55.943 98.5809 56.2754 99.0614 56.2754ZM99.0614 56.932C98.2255 56.932 97.5469 56.3052 97.5469 55.4138C97.5469 54.5224 98.2255 53.8984 99.0614 53.8984C99.8974 53.8984 100.568 54.5224 100.568 55.4138C100.568 56.3052 99.8974 56.932 99.0614 56.932Z" fill="black"/>
<path d="M104.846 54.7394L104.485 55.8218H105.21L104.846 54.7394ZM105.396 56.3807H104.298L104.123 56.9028H103.371L104.437 53.9414H105.268L106.334 56.9028H105.574L105.398 56.3807H105.396Z" fill="black"/>
<path d="M110.307 56.2774C110.849 56.2774 111.167 55.9661 111.167 55.4214C111.167 54.8766 110.848 54.5569 110.307 54.5569H109.967V56.2774H110.307ZM111.898 55.4214C111.898 56.2986 111.295 56.9028 110.355 56.9028H109.252V53.9414H110.355C111.292 53.9414 111.898 54.5399 111.898 55.4228V55.4214Z" fill="black"/>
</svg>
