<svg width="55" height="55" viewBox="0 0 55 55" fill="none" xmlns="http://www.w3.org/2000/svg">
<g clip-path="url(#clip0_1_2070)">
<path fill-rule="evenodd" clip-rule="evenodd" d="M22.0622 26.3847C21.9621 26.3007 21.8393 26.2483 21.7095 26.234C21.5796 26.2198 21.4484 26.2444 21.3325 26.3048C21.2166 26.3651 21.1211 26.4585 21.0583 26.573C20.9954 26.6876 20.968 26.8182 20.9794 26.9484C20.9907 27.0786 21.0405 27.2024 21.1223 27.3043C21.2041 27.4062 21.3142 27.4816 21.4389 27.5209C21.5635 27.5602 21.697 27.5617 21.8224 27.5251C21.9479 27.4885 22.0596 27.4156 22.1436 27.3155C22.2561 27.1812 22.3106 27.0077 22.2954 26.8332C22.2801 26.6588 22.1963 26.4974 22.0622 26.3847ZM32.8971 25.4368C32.797 25.3528 32.6742 25.3003 32.5443 25.2861C32.4144 25.2719 32.2832 25.2965 32.1673 25.3568C32.0514 25.4172 31.956 25.5105 31.8932 25.6251C31.8303 25.7397 31.8028 25.8703 31.8142 26.0005C31.8256 26.1306 31.8753 26.2545 31.9571 26.3564C32.0389 26.4583 32.1491 26.5337 32.2737 26.573C32.3983 26.6123 32.5318 26.6137 32.6573 26.5772C32.7827 26.5406 32.8945 26.4677 32.9785 26.3676C33.091 26.2333 33.1455 26.0598 33.1303 25.8853C33.115 25.7108 33.0311 25.5495 32.8971 25.4368ZM23.7691 45.0997L23.8419 45.9316C23.868 46.2157 24.0053 46.478 24.2238 46.6613C24.4423 46.8447 24.7244 46.9343 25.0087 46.9107L33.0072 46.2109C33.2913 46.1848 33.5536 46.0476 33.737 45.829C33.9203 45.6105 34.01 45.3284 33.9864 45.0441L33.9136 44.2122C33.7313 44.2594 33.5454 44.2914 33.3578 44.3078L24.333 45.0973C24.1454 45.1138 23.9568 45.1146 23.7691 45.0997ZM25.9481 48.1004L26.0101 48.8092C26.0363 49.0933 26.1735 49.3556 26.392 49.539C26.6106 49.7223 26.8927 49.812 27.177 49.7884L31.3717 49.4214C31.6558 49.3953 31.9182 49.2581 32.1017 49.0394C32.2851 48.8208 32.3748 48.5386 32.3511 48.2542L32.2891 47.5456L25.9481 48.1004ZM36.4347 40.6819C36.4336 40.6696 36.4325 40.6572 36.4314 40.6449C35.7487 32.8413 40.2864 34.1992 39.6245 26.6335C39.4879 25.0193 39.0341 23.448 38.2892 22.0095C37.5442 20.571 36.5228 19.2937 35.2833 18.2506C34.0439 17.2076 32.6108 16.4194 31.0662 15.9312C29.5216 15.443 27.8958 15.2643 26.2821 15.4055C24.6683 15.5467 23.0982 16.0049 21.6619 16.754C20.2255 17.503 18.9511 18.5281 17.9116 19.7705C16.8721 21.0129 16.0879 22.4482 15.6041 23.9942C15.1203 25.5402 14.9463 27.1664 15.092 28.7798C15.7539 36.3455 19.9874 34.2197 20.6701 42.0238L20.6734 42.061L19.1474 43.8795C19.0487 43.9957 18.9082 44.0683 18.7563 44.0816C18.6044 44.0949 18.4534 44.0478 18.336 43.9505L13.2024 39.6427C13.0863 39.544 13.0136 39.4034 13.0004 39.2516C12.9871 39.0997 13.0342 38.9486 13.1315 38.8312L14.739 36.9155C14.8324 36.8041 14.8846 36.6641 14.887 36.5187C14.8894 36.3734 14.8418 36.2317 14.7522 36.1173C14.5024 35.7314 14.2666 35.3257 14.0447 34.9002C13.8162 34.4615 13.612 34.0189 13.4321 33.5724C13.3817 33.4468 13.2922 33.3407 13.1769 33.2699C13.0615 33.199 12.9265 33.1671 12.7916 33.1789L12.7914 33.1764L10.3012 33.3943C10.1492 33.4067 9.99843 33.3587 9.88163 33.2606C9.76483 33.1626 9.69139 33.0225 9.67724 32.8706L9.09321 26.1951C9.08075 26.0431 9.12873 25.8924 9.22675 25.7756C9.32476 25.6587 9.4649 25.5853 9.61673 25.5712L12.1071 25.3533C12.2521 25.3406 12.3883 25.2783 12.4928 25.177C12.5973 25.0757 12.6638 24.9415 12.681 24.797C12.778 24.3451 12.8983 23.8924 13.0417 23.4388C13.1919 22.963 13.3609 22.5052 13.5486 22.0653C13.6016 21.9409 13.6132 21.8027 13.5818 21.6712C13.5503 21.5396 13.4774 21.4217 13.3738 21.3347L13.3753 21.3329L11.4599 19.7253C11.3437 19.6266 11.2711 19.4861 11.2578 19.3342C11.2445 19.1823 11.2916 19.0313 11.3889 18.9139L15.6963 13.7804C15.7951 13.6642 15.9356 13.5916 16.0875 13.5783C16.2394 13.565 16.3904 13.6121 16.5078 13.7094L18.4237 15.317C18.535 15.4104 18.675 15.4627 18.8203 15.4651C18.9656 15.4675 19.1073 15.4199 19.2217 15.3302C19.6076 15.0804 20.0134 14.8446 20.4389 14.6227C20.8776 14.3942 21.3202 14.19 21.7666 14.0102C21.8922 13.9597 21.9983 13.8703 22.0692 13.755C22.14 13.6396 22.1719 13.5046 22.1602 13.3698L22.1627 13.3695L21.9448 10.8791C21.9324 10.7271 21.9804 10.5764 22.0784 10.4596C22.1764 10.3428 22.3165 10.2694 22.4683 10.2552L29.144 9.67114C29.296 9.65876 29.4467 9.70678 29.5635 9.80479C29.6802 9.90279 29.7537 10.0429 29.7678 10.1947L29.9857 12.6851C29.9984 12.8301 30.0607 12.9663 30.162 13.0708C30.2633 13.1753 30.3974 13.2417 30.542 13.2589C30.9938 13.356 31.4465 13.4763 31.9001 13.6197C32.3761 13.7699 32.8339 13.9389 33.2736 14.1266C33.3981 14.1797 33.5364 14.1913 33.6681 14.1598C33.7997 14.1283 33.9178 14.0553 34.0048 13.9516L34.0065 13.9532L35.614 12.0373C35.7128 11.9212 35.8534 11.8486 36.0053 11.8353C36.1572 11.822 36.3082 11.8691 36.4256 11.9663L41.559 16.2738C41.6752 16.3726 41.7478 16.5131 41.7611 16.665C41.7744 16.8169 41.7273 16.9679 41.63 17.0853L40.0224 19.0012C39.929 19.1125 39.8767 19.2526 39.8743 19.3979C39.8719 19.5431 39.9195 19.6849 40.0092 19.7992C40.259 20.1853 40.4948 20.591 40.7167 21.0164C40.9452 21.4552 41.1494 21.8977 41.3292 22.3441C41.3796 22.4697 41.4691 22.5758 41.5844 22.6467C41.6997 22.7175 41.8348 22.7494 41.9696 22.7377L41.9698 22.7402L44.4599 22.5223C44.6119 22.5099 44.7626 22.5579 44.8794 22.6559C44.9962 22.7539 45.0696 22.894 45.0838 23.0458L45.6678 29.7215C45.6803 29.8735 45.6323 30.0242 45.5343 30.141C45.4363 30.2578 45.2962 30.3313 45.1443 30.3455L42.654 30.5634C42.509 30.576 42.3728 30.6383 42.2683 30.7396C42.1638 30.8409 42.0973 30.9751 42.0802 31.1196C41.983 31.5713 41.8628 32.0238 41.7196 32.4772C41.5693 32.9533 41.4001 33.4113 41.212 33.8513C41.159 33.9757 41.1474 34.1139 41.1789 34.2454C41.2103 34.377 41.2832 34.4949 41.3868 34.5819L41.3854 34.5837L43.3012 36.1913C43.4173 36.29 43.4899 36.4306 43.5032 36.5824C43.5165 36.7343 43.4694 36.8853 43.3721 37.0027L39.0646 42.1362C38.9659 42.2524 38.8254 42.325 38.6735 42.3382C38.5216 42.3515 38.3706 42.3045 38.2532 42.2072L36.4346 40.6811L36.4347 40.6819ZM21.1422 43.4731L20.1177 44.6939C19.8031 45.0675 19.3532 45.3012 18.8666 45.3438C18.3801 45.3863 17.8965 45.2343 17.5218 44.9211L12.3882 40.6131C12.0146 40.2984 11.781 39.8486 11.7384 39.362C11.6958 38.8754 11.8478 38.3918 12.1611 38.0171L13.4728 36.4539C13.0837 35.8205 12.7399 35.1604 12.444 34.4785L10.4116 34.6563C9.92492 34.6979 9.44161 34.545 9.06745 34.231C8.69329 33.9171 8.45877 33.4676 8.41524 32.9812L7.8312 26.3055C7.78959 25.8189 7.94251 25.3355 8.25646 24.9614C8.57042 24.5872 9.01983 24.3527 9.50631 24.3092L11.5385 24.1314C11.7115 23.4084 11.9355 22.6986 12.2087 22.0073L10.6457 20.6956C10.2721 20.381 10.0384 19.9311 9.9958 19.4445C9.95323 18.958 10.1053 18.4744 10.4186 18.0996L14.7261 12.9663C15.0407 12.5926 15.4905 12.359 15.9771 12.3164C16.4637 12.2738 16.9473 12.4258 17.322 12.7392L18.8852 14.0507C19.5186 13.6616 20.1787 13.3178 20.8606 13.0219L20.6828 10.9895C20.6412 10.5029 20.7941 10.0196 21.1081 9.64545C21.422 9.27132 21.8714 9.03681 22.3579 8.99328L29.0336 8.40923C29.5202 8.36763 30.0035 8.52053 30.3777 8.83447C30.7518 9.14841 30.9863 9.5978 31.0298 10.0843L31.2076 12.1165C31.9306 12.2895 32.6404 12.5134 33.3317 12.7866L34.6434 11.2234C34.958 10.8498 35.4079 10.6161 35.8945 10.5735C36.381 10.531 36.8647 10.683 37.2394 10.9963L42.3728 15.3037C42.7464 15.6183 42.9801 16.0682 43.0226 16.5548C43.0652 17.0413 42.9132 17.5249 42.5999 17.8996L41.2882 19.463C41.6773 20.0963 42.0211 20.7564 42.317 21.4383L44.3495 21.2605C44.8361 21.2189 45.3195 21.3718 45.6936 21.6858C46.0678 21.9997 46.3023 22.4491 46.3458 22.9356L46.9299 29.6113C46.9714 30.0979 46.8185 30.5812 46.5046 30.9554C46.1906 31.3295 45.7412 31.564 45.2547 31.6076L43.2228 31.7854C43.0498 32.5083 42.8259 33.218 42.5527 33.9094L44.1159 35.2211C44.4894 35.5358 44.7231 35.9856 44.7657 36.4722C44.8082 36.9588 44.6563 37.4424 44.343 37.8171L40.0355 42.9505C39.7209 43.3241 39.271 43.5577 38.7844 43.6003C38.2979 43.6429 37.8143 43.4909 37.4395 43.1776L36.2181 42.1534C35.995 42.7287 35.6198 43.2326 35.1326 43.6113L35.2483 44.9337C35.2946 45.4776 35.1501 46.0206 34.8396 46.4696C34.5292 46.9186 34.0722 47.2456 33.547 47.3945L33.6126 48.1438C33.6654 48.7628 33.4709 49.3774 33.0716 49.8533C32.6723 50.3292 32.1007 50.6275 31.482 50.683L27.2873 51.05C26.6684 51.1028 26.0537 50.9082 25.5779 50.5089C25.102 50.1096 24.8037 49.5381 24.7482 48.9193L24.6826 48.17C24.1396 48.1146 23.6328 47.8719 23.2491 47.4837C22.8654 47.0954 22.6288 46.5857 22.5799 46.042L22.4642 44.7198C21.9187 44.4314 21.4618 44.0003 21.1422 43.4725L21.1422 43.4731ZM27.8009 29.5826C27.7008 29.4986 27.5781 29.4461 27.4482 29.4319C27.3183 29.4177 27.1871 29.4423 27.0712 29.5026C26.9553 29.563 26.8599 29.6563 26.797 29.7709C26.7342 29.8855 26.7067 30.0161 26.7181 30.1463C26.7295 30.2764 26.7792 30.4003 26.861 30.5022C26.9428 30.6041 27.053 30.6795 27.1776 30.7188C27.3022 30.7581 27.4357 30.7595 27.5611 30.723C27.6866 30.6864 27.7984 30.6135 27.8824 30.5134C27.9948 30.3791 28.0494 30.2056 28.0341 30.0311C28.0189 29.8566 27.935 29.6953 27.8009 29.5826ZM28.1659 31.8474C28.531 31.6833 28.8359 31.4096 29.0385 31.0644C29.241 30.7191 29.3311 30.3194 29.2963 29.9207C29.1471 28.216 27.0011 27.5373 25.8997 28.8498C25.6903 29.1 25.5478 29.3993 25.4855 29.7195C25.4232 30.0398 25.4431 30.3707 25.5435 30.6811C25.6438 30.9916 25.8212 31.2716 26.0591 31.4949C26.297 31.7181 26.5877 31.8774 26.9039 31.9578L27.9148 43.5124L26.2223 43.6605L25.5787 36.3041C25.5693 36.1962 25.5324 36.0926 25.4716 36.0031C25.4107 35.9136 25.328 35.8412 25.2312 35.7928L22.9251 34.3413L22.4272 28.6495C22.7923 28.4854 23.0972 28.2118 23.2998 27.8666C23.5023 27.5213 23.5924 27.1216 23.5576 26.7229C23.4084 25.0181 21.2623 24.3395 20.161 25.6519C19.9516 25.9021 19.8091 26.2014 19.7468 26.5217C19.6845 26.8419 19.7044 27.1728 19.8047 27.4833C19.905 27.7937 20.0825 28.0737 20.3204 28.297C20.5583 28.5203 20.849 28.6795 21.1652 28.76L21.6902 34.7613L21.6932 34.7611C21.7016 34.858 21.7323 34.9517 21.783 35.0347C21.8337 35.1177 21.903 35.1879 21.9854 35.2397L24.3439 36.724L24.9604 43.7709L24.2226 43.8354C23.6642 43.8829 23.1097 43.7073 22.6804 43.3471C22.2511 42.9869 21.9819 42.4713 21.9317 41.9132C21.2061 33.6193 16.9679 35.684 16.3542 28.669C16.0989 25.7506 17.0134 22.8502 18.8965 20.606C20.7796 18.3618 23.4771 16.9576 26.3955 16.7022C29.314 16.4469 32.2144 17.3614 34.4586 19.2445C36.7028 21.1276 38.107 23.8251 38.3624 26.7436C38.9761 33.7585 34.4437 32.4614 35.1693 40.755C35.2168 41.3134 35.0412 41.8679 34.681 42.2972C34.3207 42.7265 33.8052 42.9957 33.247 43.0459L32.1308 43.1436L31.5143 36.0971L33.5334 34.2673C33.6203 34.2028 33.6892 34.1171 33.7336 34.0184C33.7779 33.9197 33.7962 33.8112 33.7867 33.7034L33.2616 27.7017C33.6267 27.5375 33.9317 27.2639 34.1343 26.9187C34.3368 26.5734 34.427 26.1737 34.3921 25.775C34.243 24.0702 32.0968 23.3916 30.9955 24.704C30.7861 24.9542 30.6436 25.2535 30.5813 25.5738C30.519 25.894 30.539 26.2249 30.6393 26.5354C30.7396 26.8458 30.917 27.1258 31.1549 27.3491C31.3929 27.5724 31.6835 27.7316 31.9997 27.8121L32.4977 33.5039L30.4791 35.3336C30.3922 35.3981 30.3233 35.4838 30.2789 35.5825C30.2345 35.6812 30.2162 35.7897 30.2257 35.8975L30.8693 43.2539L29.1768 43.402L28.1658 31.8466L28.1659 31.8474ZM7.44244 37.8684C7.39068 37.7691 7.31355 37.6853 7.21889 37.6255C7.12424 37.5657 7.01544 37.5321 6.90356 37.528C6.79168 37.5239 6.68072 37.5495 6.58195 37.6022C6.48317 37.6549 6.40012 37.7328 6.34123 37.8281C6.13173 38.1696 6.30604 38.4338 6.4585 38.7213L6.94264 39.5905C7.00333 39.694 7.09217 39.7782 7.19882 39.8332C7.30547 39.8883 7.42555 39.9119 7.5451 39.9014C7.66465 39.8909 7.77876 39.8466 7.87416 39.7738C7.96955 39.701 8.04232 39.6026 8.08399 39.49C8.20868 39.1506 8.01651 38.9224 7.8484 38.6233L7.44274 37.8683L7.44244 37.8684ZM5.69012 33.2744C5.66213 33.169 5.60744 33.0726 5.53131 32.9945C5.45519 32.9165 5.36021 32.8593 5.25555 32.8287C5.1509 32.798 5.04011 32.7949 4.93389 32.8196C4.82766 32.8442 4.7296 32.8959 4.64918 32.9695C4.33876 33.2555 4.45621 33.5729 4.54326 33.8921L4.82678 34.8494C4.85209 34.9315 4.89383 35.0077 4.94948 35.0733C5.00512 35.1388 5.07351 35.1924 5.15049 35.2307C5.22747 35.269 5.31143 35.2913 5.39728 35.2962C5.48313 35.301 5.56907 35.2884 5.6499 35.2591C5.73072 35.2297 5.80473 35.1842 5.86745 35.1254C5.93016 35.0666 5.98026 34.9956 6.01472 34.9168C6.04917 34.8381 6.06725 34.7531 6.06786 34.6671C6.06848 34.5811 6.05161 34.4959 6.01829 34.4166L5.6901 33.2742L5.69012 33.2744ZM5.00205 28.4076C4.99785 28.2902 4.96111 28.1763 4.89595 28.0786C4.83078 27.9809 4.73975 27.9032 4.63301 27.8542C4.52626 27.8052 4.40801 27.7869 4.29144 27.8012C4.17487 27.8155 4.06456 27.8619 3.97283 27.9352C3.68972 28.1624 3.7336 28.449 3.74711 28.7683L3.80966 29.7506C3.88105 30.5472 5.14418 30.5339 5.06648 29.5809L5.00207 28.4078L5.00205 28.4076ZM5.40697 23.5087C5.42641 23.4067 5.42048 23.3015 5.3897 23.2023C5.35891 23.1031 5.30422 23.013 5.23043 22.9399C5.15664 22.8668 5.06601 22.8129 4.96653 22.7831C4.86704 22.7533 4.76175 22.7483 4.65991 22.7687C4.34745 22.8311 4.20342 23.0575 4.14793 23.3471L3.94932 24.5538C3.9371 24.6366 3.94143 24.7211 3.96207 24.8023C3.9827 24.8834 4.01923 24.9597 4.06953 25.0267C4.11984 25.0936 4.18293 25.15 4.25515 25.1924C4.32736 25.2348 4.40728 25.2625 4.49026 25.2738C4.57325 25.2851 4.65765 25.2799 4.7386 25.2584C4.81955 25.2369 4.89542 25.1995 4.96184 25.1485C5.02826 25.0975 5.0839 25.0338 5.12554 24.9611C5.16718 24.8885 5.194 24.8083 5.20444 24.7252L5.40659 23.509L5.40697 23.5087ZM6.86489 18.8102C6.90588 18.7147 6.92278 18.6107 6.9141 18.5072C6.90542 18.4036 6.87142 18.3039 6.81511 18.2166C6.75879 18.1293 6.68188 18.0572 6.59115 18.0066C6.50041 17.956 6.39863 17.9285 6.29477 17.9265C5.98659 17.9206 5.79042 18.1016 5.67521 18.3696L5.2169 19.5159C5.18698 19.5941 5.17289 19.6775 5.17544 19.7613C5.17799 19.845 5.19712 19.9274 5.23173 20.0037C5.26634 20.08 5.31575 20.1487 5.37708 20.2057C5.43841 20.2628 5.51046 20.3071 5.58904 20.3362C5.66763 20.3652 5.7512 20.3784 5.8349 20.3749C5.91861 20.3714 6.00079 20.3513 6.07669 20.3159C6.15259 20.2804 6.22071 20.2302 6.27709 20.1683C6.33346 20.1063 6.37699 20.0338 6.40514 19.9549L6.86485 18.8098L6.86489 18.8102ZM9.29572 14.5321C9.35138 14.4543 9.38872 14.365 9.40495 14.2707C9.42119 14.1765 9.41589 14.0798 9.38945 13.9879C9.36302 13.8959 9.31614 13.8112 9.25232 13.74C9.1885 13.6688 9.10939 13.6129 9.02092 13.5766C8.71122 13.4498 8.42537 13.5718 8.23152 13.8419L7.53499 14.8684C7.47045 14.9695 7.43594 15.0869 7.43548 15.2069C7.43502 15.3269 7.46862 15.4445 7.53238 15.5461C7.59615 15.6478 7.68744 15.7292 7.79567 15.781C7.90389 15.8328 8.0246 15.8528 8.14375 15.8387C8.49309 15.7963 8.60291 15.5452 8.77751 15.2815L9.29572 14.5321ZM16.6097 8.05132C16.7567 7.96997 16.8653 7.83356 16.9117 7.6721C16.9581 7.51065 16.9385 7.33737 16.8572 7.19038C16.7758 7.0434 16.6394 6.93475 16.4779 6.88834C16.3165 6.84193 16.1432 6.86156 15.9962 6.94291L14.8724 7.60062C14.7815 7.65794 14.7067 7.7374 14.6549 7.83156C14.6032 7.92572 14.5762 8.03148 14.5766 8.13892C14.5769 8.24636 14.6046 8.35195 14.6569 8.44577C14.7093 8.5396 14.7846 8.61858 14.8758 8.67531C15.2408 8.90088 15.5054 8.69608 15.7684 8.53651L16.6095 8.05144L16.6097 8.05132ZM21.1561 6.19187C21.3178 6.14605 21.4545 6.03792 21.5364 5.89125C21.6183 5.74458 21.6385 5.5714 21.5927 5.40979C21.5469 5.24819 21.4388 5.11141 21.2921 5.02953C21.1454 4.94766 20.9722 4.9274 20.8106 4.97322L19.5675 5.36357C19.4889 5.39084 19.4164 5.43331 19.3543 5.48858C19.2921 5.54384 19.2414 5.6108 19.2052 5.68564C19.1689 5.76048 19.1477 5.84174 19.1428 5.92477C19.1379 6.0078 19.1495 6.09098 19.1767 6.16956C19.204 6.24814 19.2465 6.32058 19.3017 6.38274C19.357 6.4449 19.4239 6.49557 19.4988 6.53185C19.5736 6.56814 19.6549 6.58932 19.7379 6.5942C19.8209 6.59908 19.9041 6.58756 19.9827 6.56029L21.1561 6.19187ZM11.6949 11.7233L12.5908 10.8827C12.6553 10.8281 12.7082 10.7612 12.7465 10.6858C12.7847 10.6105 12.8075 10.5282 12.8135 10.4439C12.8195 10.3596 12.8085 10.275 12.7813 10.195C12.7541 10.115 12.7111 10.0413 12.655 9.97815C12.5988 9.91501 12.5306 9.86374 12.4543 9.82737C12.378 9.791 12.2953 9.77025 12.2109 9.76636C12.1264 9.76247 12.0421 9.7755 11.9628 9.80469C11.8835 9.83389 11.8109 9.87866 11.7491 9.93636L10.7972 10.8301C10.6788 10.9492 10.6125 11.1104 10.613 11.2784C10.6134 11.4464 10.6806 11.6073 10.7997 11.7257C10.9188 11.8442 11.0801 11.9104 11.248 11.91C11.416 11.9095 11.5769 11.8424 11.6953 11.7233L11.6949 11.7233ZM26.0083 5.37031C26.092 5.3661 26.174 5.34533 26.2496 5.30919C26.3252 5.27306 26.3929 5.22229 26.4487 5.15981C26.5046 5.09734 26.5475 5.02441 26.5749 4.94524C26.6024 4.86607 26.6139 4.78224 26.6087 4.69861C26.6035 4.61498 26.5818 4.5332 26.5448 4.45802C26.5078 4.38284 26.4563 4.31574 26.3932 4.26062C26.33 4.2055 26.2566 4.16345 26.1771 4.13691C26.0977 4.11036 26.0137 4.09985 25.9301 4.10598L24.6317 4.22067C23.8309 4.3176 23.9011 5.57716 24.8316 5.47276L26.0083 5.37061L26.0083 5.37031ZM51.1456 34.4675C51.2973 34.3981 51.4703 34.3915 51.6269 34.4493C51.7834 34.507 51.9107 34.6244 51.981 34.7757C52.0514 34.927 52.059 35.1 52.0022 35.2569C51.9454 35.4137 51.8288 35.5418 51.678 35.613L48.9449 36.8814C48.793 36.9519 48.6193 36.9593 48.4619 36.9018C48.3046 36.8443 48.1766 36.7267 48.106 36.5748L46.8378 33.8417C46.8029 33.7665 46.7831 33.6852 46.7796 33.6023C46.7761 33.5194 46.7889 33.4367 46.8174 33.3588C46.8459 33.2809 46.8894 33.2094 46.9455 33.1483C47.0016 33.0872 47.0692 33.0378 47.1444 33.0028C47.2196 32.9679 47.301 32.9481 47.3839 32.9446C47.4667 32.9411 47.5495 32.9539 47.6274 32.9824C47.7053 33.0109 47.7768 33.0544 47.8379 33.1105C47.8989 33.1666 47.9484 33.2342 47.9833 33.3094L48.6101 34.6601C49.5541 31.7875 49.9016 28.7525 49.6314 25.7408C48.6727 14.7834 39.8959 6.19609 29.0511 5.38908C28.9678 5.38375 28.8863 5.36195 28.8115 5.32495C28.7366 5.28794 28.6698 5.23647 28.615 5.1735C28.5602 5.11053 28.5183 5.03732 28.492 4.95809C28.4656 4.87886 28.4552 4.79519 28.4614 4.71192C28.4676 4.62865 28.4902 4.54743 28.528 4.47296C28.5657 4.39848 28.6179 4.33224 28.6814 4.27804C28.7449 4.22385 28.8185 4.18278 28.898 4.15723C28.9775 4.13167 29.0613 4.12212 29.1445 4.12914C40.6052 4.982 49.8804 14.0568 50.893 25.6305C51.1741 28.8262 50.8014 32.0457 49.7976 35.0926L51.1456 34.4675Z" fill="white"/>
</g>
<defs>
<clipPath id="clip0_1_2070">
<rect width="50" height="50" fill="white" transform="translate(0 4.42464) scale(1.01537) rotate(-5)"/>
</clipPath>
</defs>
</svg>
