<svg width="32" height="32" viewBox="0 0 32 32" fill="none" xmlns="http://www.w3.org/2000/svg">
<path d="M7 6.5H25V24.5H7V6.5Z" fill="#D92D2D"/>
<path d="M22.6665 4.45254C24.6775 5.61368 26.3504 7.27991 27.5196 9.28627C28.6888 11.2926 29.3137 13.5696 29.3324 15.8917C29.3512 18.2137 28.7631 20.5005 27.6265 22.5255C26.4899 24.5505 24.8442 26.2435 22.8522 27.437C20.8602 28.6304 18.591 29.283 16.2693 29.33C13.9476 29.3769 11.6539 28.8168 9.61524 27.7049C7.57658 26.593 5.86367 24.9679 4.64606 22.9906C3.42845 21.0132 2.74838 18.7522 2.67317 16.4312L2.6665 15.9992L2.67317 15.5672C2.74784 13.2645 3.4179 11.0205 4.61802 9.05386C5.81815 7.08724 7.50738 5.46514 9.52103 4.34572C11.5347 3.22629 13.804 2.64773 16.1078 2.66646C18.4117 2.68518 20.6713 3.30054 22.6665 4.45254ZM20.9425 12.3899C20.7129 12.1603 20.4074 12.0224 20.0834 12.002C19.7594 11.9816 19.439 12.0802 19.1825 12.2792L19.0572 12.3899L14.6665 16.7792L12.9425 15.0565L12.8172 14.9459C12.5606 14.747 12.2403 14.6486 11.9164 14.669C11.5924 14.6894 11.287 14.8274 11.0575 15.0569C10.828 15.2864 10.6901 15.5918 10.6696 15.9157C10.6492 16.2397 10.7476 16.56 10.9465 16.8165L11.0572 16.9419L13.7238 19.6085L13.8492 19.7192C14.083 19.9006 14.3705 19.9991 14.6665 19.9991C14.9625 19.9991 15.25 19.9006 15.4838 19.7192L15.6092 19.6085L20.9425 14.2752L21.0532 14.1499C21.2522 13.8933 21.3507 13.573 21.3304 13.249C21.31 12.9249 21.1721 12.6195 20.9425 12.3899Z" fill="white"/>
</svg>
