<svg width="563" height="298" viewBox="0 0 563 298" fill="none" xmlns="http://www.w3.org/2000/svg">
<path d="M4.2195 114.922L33.1919 42.3517C43.6381 16.5766 66.3325 0.0415667 91.3309 0H506.995C537.693 0.0374103 562.567 28.265 562.6 63.1057V220.799C562.6 239.899 548.956 255.382 532.125 255.382H486.649C482.209 280.185 463.002 298 440.703 298C418.404 298 399.197 280.185 394.757 255.382H167.842C163.403 280.185 144.195 298 121.897 298C99.5977 298 80.3902 280.185 75.9509 255.382H26.0642C14.4862 255.378 4.29275 246.712 1.02923 234.1C0.351625 231.399 0.00732552 228.61 0 225.804V136.952C0.00366276 129.35 1.44313 121.839 4.2195 114.922ZM515.716 127.691C520.895 127.691 525.093 122.928 525.093 117.05V31.9228C525.093 26.0495 520.895 21.2819 515.716 21.2819H450.08C444.901 21.2819 440.703 26.0495 440.703 31.9228V117.05C440.703 122.928 444.901 127.691 450.08 127.691H515.716ZM440.703 276.664C456.237 276.664 468.833 262.374 468.833 244.741C468.833 227.113 456.237 212.819 440.703 212.819C425.169 212.819 412.573 227.113 412.573 244.741C412.617 262.353 425.188 276.614 440.703 276.664ZM337.56 117.05C337.56 122.928 341.757 127.691 346.936 127.691H412.573C417.752 127.691 421.95 122.928 421.95 117.05V31.9228C421.95 26.0495 417.752 21.2819 412.573 21.2819H346.936C341.757 21.2819 337.56 26.0495 337.56 31.9228V117.05ZM234.416 117.05C234.416 122.928 238.614 127.691 243.793 127.691H309.43C314.609 127.691 318.806 122.928 318.806 117.05V31.9228C318.806 26.0495 314.609 21.2819 309.43 21.2819H243.793C238.614 21.2819 234.416 26.0495 234.416 31.9228V117.05ZM206.287 127.691C211.466 127.691 215.663 122.928 215.663 117.05V31.9228C215.663 26.0495 211.466 21.2819 206.287 21.2819H140.65C135.471 21.2819 131.273 26.0495 131.273 31.9228V117.05C131.273 122.928 135.471 127.691 140.65 127.691H206.287ZM121.897 276.664C137.43 276.664 150.027 262.374 150.027 244.741C150.027 227.113 137.43 212.819 121.897 212.819C106.363 212.819 93.7666 227.113 93.7666 244.741C93.8105 262.353 106.381 276.614 121.897 276.664ZM103.894 127.691C108.755 127.201 112.491 122.591 112.52 117.05V31.8313C112.52 26.0079 108.359 21.2819 103.224 21.2819H91.3309C73.68 21.3359 57.6555 32.9994 50.2567 51.1845L21.2843 123.755C19.7716 127.537 18.9401 131.627 18.8449 135.776L103.894 127.691Z" fill="white"/>
</svg>
