<svg width="32" height="32" viewBox="0 0 32 32" fill="none" xmlns="http://www.w3.org/2000/svg">
<path fill-rule="evenodd" clip-rule="evenodd" d="M1.3335 3.7827C1.3342 3.13296 1.59262 2.51003 2.05206 2.0506C2.5115 1.59116 3.13442 1.33274 3.78416 1.33203H28.2135C28.5356 1.33151 28.8546 1.39452 29.1524 1.51746C29.4501 1.6404 29.7206 1.82085 29.9485 2.04848C30.1764 2.27612 30.3571 2.54647 30.4804 2.84405C30.6037 3.14163 30.667 3.4606 30.6668 3.7827V28.212C30.6668 28.8625 30.4085 29.4863 29.9487 29.9463C29.4889 30.4064 28.8653 30.665 28.2148 30.6654H3.78416C3.13419 30.6647 2.51106 30.4061 2.05159 29.9463C1.59211 29.4866 1.33385 28.8633 1.3335 28.2134V3.7827ZM12.9442 12.516H16.9162V14.5107C17.4895 13.364 18.9562 12.332 21.1602 12.332C25.3855 12.332 26.3868 14.616 26.3868 18.8067V26.5694H22.1108V19.7614C22.1108 17.3747 21.5375 16.028 20.0815 16.028C18.0615 16.028 17.2215 17.48 17.2215 19.7614V26.5694H12.9442V12.516ZM5.61083 26.3867H9.88816V12.332H5.61083V26.3867ZM10.5002 7.74803C10.5082 8.11426 10.4431 8.47842 10.3085 8.81912C10.1739 9.15982 9.97263 9.47021 9.71647 9.73208C9.46031 9.99394 9.15443 10.202 8.81677 10.344C8.47911 10.4861 8.11648 10.5593 7.75016 10.5593C7.38384 10.5593 7.02121 10.4861 6.68356 10.344C6.3459 10.202 6.04001 9.99394 5.78385 9.73208C5.52769 9.47021 5.32642 9.15982 5.19184 8.81912C5.05727 8.47842 4.9921 8.11426 5.00016 7.74803C5.01599 7.02917 5.31268 6.34509 5.82668 5.84228C6.34068 5.33948 7.03113 5.05792 7.75016 5.05792C8.4692 5.05792 9.15965 5.33948 9.67365 5.84228C10.1876 6.34509 10.4843 7.02917 10.5002 7.74803Z" fill="white"/>
</svg>
