<svg width="276" height="137" viewBox="0 0 276 137" fill="none" xmlns="http://www.w3.org/2000/svg">
<path d="M58.5601 84.7693C58.5601 86.5368 58.5308 88.2978 58.5797 90.0687C58.5992 90.6929 58.5569 91.5077 59.4986 91.5438C62.2326 91.6489 64.9731 92.0268 67.7005 91.3795C68.8671 91.1036 69.7045 90.522 70.2031 89.4411C71.0601 87.575 71.399 85.6038 71.1155 83.5734C70.7147 80.6855 68.6748 78.849 65.7877 78.7636C63.7283 78.7012 61.6623 78.7767 59.6029 78.734C58.8013 78.7143 58.508 78.9541 58.5406 79.7919C58.6025 81.451 58.5601 83.1134 58.5601 84.7791L58.5667 84.7726L58.5601 84.7693ZM84.6159 104.018C84.6159 106.749 84.6354 109.275 84.5931 111.795C84.5931 112.051 84.2118 112.534 84.0228 112.528C81.1422 112.423 78.2388 112.449 75.4006 112.045C72.4287 111.624 70.3758 109.633 68.8801 107.077C67.7331 105.106 66.5535 103.154 65.4847 101.144C64.9926 100.221 64.3865 99.8592 63.3568 99.9249C62.1609 100.004 60.9519 99.9971 59.7495 99.9249C58.8208 99.869 58.4982 100.152 58.5178 101.131C58.5732 104.488 58.5406 107.849 58.5373 111.207C58.5373 112.505 58.5015 112.534 57.1948 112.541C54.1024 112.541 51.0035 112.505 47.911 112.564C46.9335 112.584 46.7021 112.232 46.7021 111.315C46.7249 98.0193 46.7249 84.7266 46.7021 71.4273C46.7021 70.5961 46.9758 70.3628 47.7709 70.3562C53.6103 70.3135 59.453 70.2347 65.2924 70.1657C70.4214 70.1033 74.9346 71.7821 78.8091 75.1529C81.2465 77.2687 82.6477 79.9726 82.9279 83.2219C83.3711 88.3964 81.5723 92.6444 77.6229 95.9725C76.2804 97.106 76.1826 97.1717 76.893 98.7552C77.6392 100.421 78.4604 102.07 79.4706 103.582C79.7801 104.041 80.8001 104.137 81.5104 104.179C82.5239 104.235 83.5471 104.087 84.6224 104.022L84.6159 104.015V104.018Z" fill="white"/>
<path d="M12.3895 90.9964C12.3895 94.6991 12.3829 98.405 12.3895 102.108C12.3895 103.655 12.6371 103.967 14.1393 104.023C15.7426 104.085 17.3523 104.095 18.9555 104.03C22.5107 103.888 24.9448 101.858 26.5448 98.9011C28.2393 95.757 28.2328 92.2186 27.9069 88.7624C27.4344 83.8179 24.5701 80.2039 20.1254 79.1329C18.0236 78.6236 15.7621 78.7846 13.5756 78.6072C12.6827 78.5349 12.3666 78.8569 12.3732 79.7834C12.4155 83.5221 12.3927 87.2609 12.3927 90.9964H12.3895ZM0.625922 91.3283C0.625922 84.7213 0.648733 78.1078 0.603112 71.5009C0.596595 70.4068 0.961558 70.167 1.95869 70.1801C6.42297 70.2294 10.8905 70.1933 15.3548 70.236C20.083 70.2853 24.7232 70.7682 29.0311 73.0121C31.9052 74.5103 34.2612 76.5472 36.0371 79.2643C36.1348 79.4121 36.2261 79.5567 36.3271 79.6914C39.7421 83.9493 40.3384 88.9234 39.6867 94.0979C38.4224 104.154 31.0775 111.297 21.028 112.194C17.3751 112.526 13.6896 112.45 10.0139 112.526C7.33538 112.575 4.65681 112.519 1.97498 112.591C0.955042 112.621 0.60963 112.329 0.612889 111.258C0.655251 104.614 0.635699 97.9681 0.635699 91.325H0.616147H0.622664L0.625922 91.3283Z" fill="white"/>
<path d="M226.587 112.468C223.185 112.468 219.783 112.455 216.381 112.481C215.693 112.481 215.383 112.304 215.397 111.551C215.439 109.442 215.439 107.33 215.419 105.22C215.413 104.567 215.638 104.248 216.293 104.241C218.554 104.222 220.812 104.192 223.08 104.176C225.997 104.153 228.92 104.139 231.836 104.11C232.833 104.097 233.834 104.11 234.824 104.031C236.555 103.89 237.18 103.236 237.363 101.524C237.441 100.772 237.607 100.02 237.623 99.2606C237.672 97.1612 236.584 95.7748 234.518 95.5777C232.367 95.3773 230.197 95.3773 228.037 95.3641C224.39 95.3444 221.044 94.4902 218.163 92.1149C214.403 89.02 212.871 83.4644 214.549 78.8583C216.25 74.1831 221.233 70.5068 226.244 70.3984C232.628 70.2637 239.021 70.2636 245.411 70.1585C246.347 70.1454 246.585 70.4838 246.555 71.3708C246.484 73.4078 246.464 75.4579 246.513 77.4948C246.536 78.4377 246.265 78.7498 245.297 78.7433C239.901 78.7006 234.508 78.7203 229.112 78.7236C226.14 78.7236 224.684 80.6981 225.498 83.5925C226.306 86.4508 226.398 86.4936 229.356 86.5888C232.377 86.6874 235.421 86.6381 238.396 87.0488C241.511 87.4824 244.434 88.9017 246.422 91.3691C249.459 95.1309 249.977 99.5004 248.191 104.051C246.06 109.465 241.957 112.153 236.291 112.409C233.071 112.557 229.832 112.432 226.606 112.432V112.468L226.587 112.475V112.468Z" fill="white"/>
<path d="M164.52 70.7478C164.084 72.0587 163.676 73.3302 163.24 74.5885C160.352 82.9137 157.462 91.2422 154.568 99.5674C153.64 102.248 152.74 104.932 151.769 107.594C150.743 110.383 148.592 111.963 145.871 112.788C143.58 113.478 141.254 113.432 138.956 112.745C136.2 111.924 134.274 110.163 133.293 107.446C131.445 102.307 129.64 97.1559 127.838 91.9978C125.498 85.312 123.178 78.6164 120.845 71.924C120.725 71.5692 120.62 71.2078 120.438 70.6328C121.5 70.485 122.491 70.2222 123.475 70.2353C125.906 70.255 128.34 70.393 130.771 70.4981C132.302 70.5606 132.977 71.5987 133.365 72.8965C136.232 82.6114 139.087 92.3263 141.954 102.041C142.059 102.383 142.209 102.715 142.342 103.05C142.44 103.063 142.544 103.079 142.639 103.093C142.893 102.56 143.222 102.048 143.385 101.489C145.2 95.3227 146.992 89.1494 148.797 82.9761C149.873 79.2932 150.948 75.6102 152.023 71.9273C152.395 70.6723 153.056 70.1236 154.327 70.1663C157.517 70.2813 160.701 70.4357 163.891 70.5836C164.054 70.5901 164.214 70.6624 164.517 70.7413L164.52 70.7478Z" fill="white"/>
<path d="M195.359 79.2884V71.4987C195.359 70.6182 195.78 70.1516 196.682 70.1582C199.775 70.1714 202.867 70.1812 205.96 70.1648C206.69 70.1648 207.012 70.3915 206.993 71.18C206.901 75.9898 207.035 80.8095 206.738 85.6062C206.276 92.949 202.418 97.8903 195.558 100.4C194.616 100.742 194.307 101.182 194.326 102.174C194.388 105.253 194.326 108.335 194.362 111.413C194.375 112.257 194.108 112.589 193.245 112.576C190.048 112.547 186.854 112.547 183.658 112.576C182.784 112.583 182.455 112.284 182.468 111.364C182.517 108.249 182.462 105.135 182.504 102.02C182.517 101.176 182.299 100.729 181.442 100.436C177.33 99.004 174.078 96.5072 172.038 92.5384C170.724 89.9823 170.258 87.2292 170.19 84.4136C170.079 80.0867 170.099 75.7631 170.034 71.4362C170.021 70.7069 170.337 70.4145 170.995 70.4145C174.325 70.3948 177.649 70.3915 180.976 70.3783C181.771 70.3783 181.673 70.9237 181.67 71.4625C181.634 74.9188 181.566 78.3816 181.608 81.8378C181.631 83.7335 181.833 85.6358 182.022 87.5282C182.276 90.1466 184.378 92.177 187.246 92.568C188.223 92.7027 189.233 92.7881 190.211 92.6961C193.205 92.4135 195.174 88.9934 195.206 86.5524C195.236 84.131 195.213 81.7064 195.213 79.2851H195.366L195.359 79.2884Z" fill="white"/>
<path d="M102.581 112.535C98.6997 112.535 94.8089 112.512 90.9279 112.555C90.0481 112.568 89.719 112.334 89.7418 111.392C89.7842 109.282 89.7223 107.17 89.6799 105.064C89.6669 104.289 90.1068 104.154 90.7422 104.164C92.3585 104.2 93.9747 104.206 95.5845 104.262C96.373 104.285 96.6891 103.973 96.6891 103.168C96.6891 97.6323 96.7087 92.0931 96.7185 86.5506C96.7185 84.3362 96.6696 82.1219 96.7413 79.9075C96.7771 78.9055 96.4056 78.6656 95.4965 78.7018C93.8802 78.7642 92.264 78.7018 90.6477 78.7248C89.9862 78.7379 89.7353 78.4849 89.7418 77.8147C89.7548 75.6365 89.7418 73.4517 89.6929 71.2735C89.6799 70.6131 89.8819 70.3634 90.563 70.3569C97.8101 70.3142 105.057 70.2452 112.314 70.1992C112.862 70.1992 113.409 70.2977 113.953 70.3536C115.1 70.4653 115.674 71.1158 115.674 72.3051C115.674 74.1022 115.661 75.9092 115.703 77.7063C115.723 78.4718 115.465 78.7511 114.696 78.7346C113.051 78.6919 111.398 78.7642 109.75 78.7051C108.886 78.6755 108.645 78.9679 108.645 79.8254C108.668 86.6097 108.645 93.3941 108.645 100.182C108.645 101.013 108.658 101.847 108.603 102.672C108.56 103.309 108.814 103.694 109.417 103.766C110.942 103.944 112.467 104.151 113.999 104.213C115.651 104.275 115.693 104.249 115.68 105.879C115.667 107.715 115.602 109.548 115.68 111.378C115.723 112.407 115.315 112.571 114.429 112.558C110.473 112.522 106.524 112.538 102.571 112.538H102.577L102.581 112.535Z" fill="white"/>
<path d="M269.881 70.6536C269.881 75.3944 269.9 80.1418 269.861 84.8826C269.854 85.9964 270.219 86.7718 271.119 87.4223C272.067 88.1023 272.891 88.9467 273.81 89.6728C275.518 91.0296 275.948 92.945 275.968 94.9458C276.029 100.347 275.981 105.752 275.997 111.146C275.997 111.892 275.694 112.053 275.006 112.083C270.819 112.237 266.635 112.467 262.448 112.608C260.978 112.657 259.502 112.503 258.026 112.46C257.413 112.441 257.188 112.171 257.195 111.56C257.273 105.43 257.315 99.3056 257.442 93.175C257.455 92.5574 257.863 91.828 258.306 91.3647C259.313 90.2937 260.401 89.272 261.574 88.3915C262.672 87.5701 263.226 86.568 263.21 85.2342C263.09 75.6112 263.07 65.9883 262.774 56.3752C262.585 50.3859 261.825 44.4393 259.919 38.7063C258.049 33.085 254.656 28.8435 248.99 26.8066C244.9 25.338 240.612 24.9766 236.288 25.0127C235.431 25.0193 234.567 25.0325 233.71 25.1113C233.055 25.1737 232.733 24.8978 232.648 24.29C232.465 23.0251 232.309 21.7569 232.149 20.492C232.045 19.697 232.436 19.2699 233.195 19.3158C235.535 19.4571 237.884 19.3783 240.218 19.6773C242.544 19.9697 244.848 20.4099 247.119 20.9914C249.143 21.5105 251.189 22.0986 253.109 22.9429C255.015 23.7643 256.849 24.7729 258.528 26.0017C259.828 26.9511 260.975 28.1372 261.949 29.4218C263.262 31.1466 264.24 33.0981 265.103 35.0825C265.977 37.0833 266.853 39.0841 267.394 41.1934C267.753 42.5995 268.007 44.0319 268.232 45.4709C268.984 50.2808 269.392 55.1366 269.61 59.9957C269.737 62.8146 269.806 65.6368 269.841 68.4622C269.854 69.1916 269.841 69.9176 269.841 70.647H269.884L269.881 70.6536Z" fill="white"/>
<path d="M132.605 37.4288C134.44 48.0177 144.483 55.1338 154.998 53.2874L206.354 44.2756C215.054 42.7512 221.62 35.5036 222.331 26.656C222.598 23.3574 222.021 20.0195 220.659 17.0002C217.019 8.9115 208.404 4.33494 199.706 5.85937L148.351 14.8712C137.835 16.7176 130.767 26.8334 132.602 37.4222V37.4288H132.605ZM222.194 21.7114C222.474 23.3443 222.552 25.01 222.419 26.6658C221.708 35.5561 215.103 42.8366 206.367 44.3643L155.011 53.3761C144.447 55.2291 134.355 48.0834 132.514 37.4452C130.673 26.8071 137.77 16.6453 148.335 14.7891L199.69 5.77724C208.426 4.24295 217.084 8.84909 220.741 16.9673C221.422 18.4786 221.907 20.0753 222.194 21.7082V21.7114Z" fill="#0E1038"/>
<path d="M204.721 36.4768C211.137 36.4768 216.338 31.2388 216.338 24.7774C216.338 18.3161 211.137 13.0781 204.721 13.0781C198.306 13.0781 193.104 18.3161 193.104 24.7774C193.104 31.2388 198.306 36.4768 204.721 36.4768Z" fill="#00A450"/>
<path d="M193.316 26.7781C194.411 33.109 200.417 37.3636 206.706 36.2597C212.995 35.1591 217.215 29.1074 216.123 22.7764C215.028 16.4455 209.023 12.1909 202.734 13.2947C196.445 14.3954 192.225 20.4471 193.316 26.7781ZM216.211 22.7567C217.316 29.137 213.057 35.2314 206.722 36.3451C200.384 37.4589 194.333 33.1714 193.228 26.7879C192.124 20.4076 196.383 14.3132 202.717 13.1995C209.055 12.0857 215.107 16.3732 216.211 22.7567Z" fill="#00A450"/>
<path d="M199.703 5.8236C208.42 4.2926 217.055 8.88889 220.705 16.9874C222.054 19.9903 222.644 23.3742 222.376 26.6596C221.666 35.5302 215.08 42.7942 206.36 44.322L155.005 53.3338C144.463 55.1802 134.398 48.0542 132.556 37.439C130.722 26.8239 137.8 16.6852 148.341 14.8322L199.697 5.82031H199.703V5.8236ZM127.15 38.382C129.506 52 142.423 61.1531 155.947 58.781L207.302 49.7692C218.486 47.8045 226.932 38.4871 227.848 27.1065C227.867 26.8666 227.883 26.6366 227.896 26.3968C227.994 24.5175 227.877 22.635 227.558 20.7689C227.235 18.9094 226.707 17.0925 225.984 15.3611C225.892 15.141 225.801 14.9275 225.703 14.7073C221.021 4.30576 209.938 -1.58497 198.758 0.373126L147.403 9.38499C133.879 11.7603 124.791 24.7673 127.147 38.3852L127.15 38.382Z" fill="white"/>
<path d="M149.527 46.1604C155.943 46.1604 161.144 40.9224 161.144 34.461C161.144 27.9997 155.943 22.7617 149.527 22.7617C143.112 22.7617 137.911 27.9997 137.911 34.461C137.911 40.9224 143.112 46.1604 149.527 46.1604Z" fill="#DA1F26"/>
<path d="M138.129 36.4636C139.224 42.7946 145.229 47.0492 151.518 45.9453C157.807 44.8447 162.027 38.7929 160.936 32.462C159.841 26.131 153.835 21.8764 147.546 22.9803C141.257 24.0809 137.037 30.1326 138.129 36.4636ZM161.02 32.4423C162.125 38.8225 157.866 44.9169 151.531 46.0307C145.197 47.1444 139.142 42.857 138.037 36.4735C136.933 30.0932 141.192 23.9988 147.526 22.885C153.864 21.7713 159.916 26.0587 161.02 32.4423Z" fill="#5C0F22"/>
<path d="M175.133 18.087C168.815 19.1942 164.582 25.2558 165.68 31.6196C166.778 37.9834 172.8 42.2479 179.119 41.1407C185.437 40.0335 189.67 33.9719 188.572 27.6081C187.474 21.2443 181.452 16.9798 175.133 18.087Z" fill="#F68C2D"/>
<path d="M165.722 31.6172C166.817 37.9481 172.823 42.2027 179.112 41.0988C185.401 39.9982 189.621 33.9465 188.529 27.6156C187.435 21.2846 181.429 17.03 175.146 18.1339C168.857 19.2345 164.637 25.2862 165.729 31.6172H165.722ZM188.614 27.6024C189.719 33.9827 185.46 40.0771 179.125 41.1908C172.787 42.3046 166.736 38.0171 165.631 31.6336C164.527 25.2533 168.786 19.1589 175.12 18.0452C181.458 16.9314 187.509 21.2189 188.608 27.6024H188.614Z" fill="#F68C2D"/>
<path d="M177.91 32.6022C176.531 32.934 174.403 32.8651 174.136 32.0273L174.257 30.8905C175.065 31.1797 176.212 31.1731 177.496 30.8675C178.78 30.562 179.809 30.0429 180.399 29.4187L181.018 30.378C181.152 31.2519 179.288 32.2737 177.906 32.6055L177.91 32.6022ZM174.752 26.3534C175.231 26.4191 175.791 26.383 176.404 26.2384C177.017 26.0906 177.535 25.8704 177.929 25.5912L178.786 26.9185C178.45 27.3587 177.717 27.7563 176.811 27.9698C175.905 28.1834 175.075 28.1669 174.576 27.9271L174.745 26.3534H174.752ZM183.664 29.1427L180.445 28.3838L177.248 23.4327C176.89 22.8807 176.228 22.6113 175.589 22.7657C174.951 22.9201 174.478 23.4622 174.403 24.1193L173.765 29.9871L171.233 32.1291C170.868 32.4347 170.711 32.9176 170.819 33.3842C170.93 33.8507 171.288 34.2088 171.748 34.3205L176.736 35.4967C177.343 35.6379 177.988 35.6379 178.597 35.4967C179.203 35.3554 179.777 35.063 180.256 34.6589L184.179 31.3505C184.544 31.0449 184.7 30.562 184.593 30.0955C184.482 29.6289 184.124 29.2708 183.664 29.1591V29.146V29.1427Z" fill="#BA5909"/>
<path d="M155.256 35.7458C155.207 35.8246 155.145 35.8739 155.06 35.9002L153.828 36.1893C153.646 36.232 153.542 36.1696 153.604 36.048C153.646 35.9331 153.933 35.5651 154.089 35.5093L154.878 35.2168C154.878 35.2168 154.907 35.2037 154.92 35.2037C154.988 35.184 155.06 35.2037 155.109 35.2333C155.187 35.2694 155.236 35.345 155.262 35.4304L155.298 35.5093C155.318 35.5947 155.298 35.6867 155.249 35.7491H155.256V35.7458ZM145.444 34.5828C145.056 34.655 144.691 34.7963 144.326 34.9672C144.382 34.7602 144.44 34.5696 144.483 34.3692C144.629 33.7023 144.773 33.0485 144.913 32.3815C144.985 32.0826 145.076 31.7934 145.167 31.5142C145.294 31.1462 145.597 30.8834 145.969 30.8111L150.902 29.6547C151.104 29.6054 151.329 29.5922 151.521 29.6185C151.684 29.6481 151.86 29.7171 151.984 29.8091C152.264 30.0226 152.512 30.269 152.72 30.5549C153.248 31.2415 153.776 31.9314 154.301 32.6181L154.33 32.6674C154.184 32.6477 154.027 32.6477 153.894 32.6674C153.571 32.7101 153.239 32.7824 152.916 32.8448L145.438 34.5959L145.444 34.5893V34.5828ZM146.119 37.9536L144.903 38.2361C144.734 38.2723 144.551 38.1639 144.515 37.993L144.493 37.8944C144.473 37.809 144.493 37.717 144.541 37.6546C144.597 37.5889 144.675 37.5396 144.743 37.5396L145.581 37.4476C145.77 37.4246 146.164 37.625 146.255 37.7105C146.366 37.809 146.304 37.9109 146.122 37.9536H146.119ZM156.435 31.3598C156.367 31.2875 156.279 31.2744 156.191 31.3105C155.728 31.4386 155.243 31.5306 154.78 31.6423C154.731 31.6555 154.695 31.6423 154.666 31.5996C154.61 31.5076 154.532 31.4025 154.461 31.3105C154.047 30.7356 153.665 30.1409 153.232 29.5725C152.584 28.7347 151.73 28.3865 150.674 28.6559L147.448 29.4083C146.835 29.5561 146.216 29.6777 145.607 29.8551C145.037 30.0259 144.561 30.4169 144.3 30.9557C144.137 31.2908 144.027 31.6588 143.971 32.0399C143.838 32.7561 143.724 33.4526 143.606 34.1688C143.606 34.2115 143.583 34.2476 143.544 34.2608H143.521L142.111 34.5926C142.026 34.5926 141.948 34.6485 141.915 34.7273C141.879 34.8062 141.886 34.8916 141.915 34.9704C142.049 35.2398 142.195 35.5027 142.342 35.7524C142.427 35.8936 142.596 35.9528 142.743 35.9068L143.326 35.7721C143.319 35.8082 143.326 35.8279 143.306 35.8443C143.245 36.2649 143.196 36.6657 143.137 37.0797C143.137 37.1355 143.124 37.1914 143.137 37.2374L144.017 41.055C144.036 41.1404 144.079 41.2324 144.128 41.3113C144.212 41.4525 144.323 41.5511 144.473 41.6004C144.607 41.6562 144.77 41.6727 144.916 41.6365L146.047 41.3737C146.21 41.3375 146.369 41.2455 146.474 41.0977C146.585 40.9696 146.63 40.7987 146.627 40.6213C146.614 40.4801 146.598 40.3289 146.565 40.1942L146.493 39.8755L154.555 37.9897L154.666 38.4595C154.799 39.0279 155.164 39.2415 155.712 39.1133L156.527 38.9228C156.611 38.9031 156.68 38.8866 156.758 38.8505C156.914 38.7782 157.045 38.6599 157.136 38.4957C157.221 38.338 157.234 38.154 157.198 37.9864L156.341 34.2739C156.311 34.1392 156.263 34.0111 156.201 33.8994C156.087 33.699 155.969 33.4953 155.836 33.3014C155.751 33.1602 155.673 33.0386 155.588 32.9039L156.171 32.7692C156.341 32.7462 156.468 32.6115 156.481 32.4341C156.5 32.145 156.504 31.8657 156.53 31.5963C156.543 31.5043 156.507 31.4255 156.445 31.3696L156.439 31.3565L156.435 31.3598Z" fill="#A50410"/>
<path d="M149.592 31.2634L148.012 31.6314C147.914 31.6544 147.823 31.5952 147.8 31.4967L147.715 31.1353C147.692 31.0367 147.751 30.9447 147.849 30.9217L149.429 30.5538C149.527 30.5308 149.618 30.5899 149.641 30.6884L149.726 31.0499C149.749 31.1484 149.69 31.2404 149.592 31.2634Z" fill="#A50410"/>
<path d="M202.137 26.7901C202.235 26.0936 202.411 25.4135 202.671 24.7597L203.408 25.0521C203.17 25.6468 203.014 26.271 202.922 26.8985L202.137 26.7868V26.7901ZM202.893 28.7712C202.942 29.2312 203.027 29.6878 203.154 30.1347L203.274 30.5749L202.515 30.795L202.394 30.3548C202.254 29.8653 202.157 29.356 202.108 28.8566L202.893 28.7778V28.7712ZM208.553 20.3704C208.068 20.5117 207.592 20.6957 207.142 20.9224L206.784 20.2127C207.276 19.9631 207.797 19.7593 208.332 19.6016L208.635 19.5162L208.853 20.2817L208.55 20.3672V20.3737L208.553 20.3704ZM205.572 21.9869C205.102 22.3975 204.679 22.8608 204.32 23.37L203.675 22.9035C204.076 22.3417 204.539 21.8259 205.053 21.3791L205.568 21.977V21.9836L205.572 21.9869ZM207.429 17.3742C206.018 17.7783 204.724 18.4518 203.59 19.3684C202.495 20.2555 201.593 21.3396 200.905 22.5815C200.218 23.8234 199.781 25.1638 199.612 26.57C199.436 28.0254 199.543 29.4874 199.947 30.9067L200.237 31.9416C200.449 32.6808 201.215 33.1178 201.958 32.901L204.946 32.0435C205.682 31.8299 206.113 31.0579 205.901 30.3121L205.611 29.2772C204.858 26.6094 206.396 23.8267 209.042 23.0677L210.068 22.7754C210.805 22.5618 211.235 21.7897 211.023 21.0439L210.173 18.0345C209.961 17.2953 209.195 16.8583 208.452 17.0752L207.426 17.3676L207.432 17.3742H207.429Z" fill="#00602B"/>
<path d="M0.801614 137H274.648L271.265 130.587L275.4 120.475H0L4.86183 130.587L0.801614 137Z" fill="#F68C2D"/>
<path d="M15.876 125.254H17.7659L19.0889 128.135L20.4022 125.254H22.2661L19.9036 129.853V132.124H18.2384V129.853L15.876 125.254Z" fill="black"/>
<path d="M32.1884 130.672C33.2768 130.672 33.9872 129.877 33.9872 128.671C33.9872 127.465 33.2768 126.67 32.1884 126.67C31.1 126.67 30.3766 127.442 30.3766 128.671C30.3766 129.9 31.074 130.672 32.1884 130.672ZM32.1884 132.196C30.2496 132.196 28.6756 130.741 28.6756 128.671C28.6756 126.601 30.2496 125.152 32.1884 125.152C34.1273 125.152 35.6816 126.601 35.6816 128.671C35.6816 130.741 34.1273 132.196 32.1884 132.196Z" fill="black"/>
<path d="M42.5996 125.254H44.2647V129.364C44.2647 130.179 44.6655 130.648 45.4508 130.648C46.2362 130.648 46.6533 130.179 46.6533 129.364V125.254H48.3184V129.361C48.3184 131.263 46.9954 132.199 45.4215 132.199C43.8476 132.199 42.6028 131.256 42.6028 129.361V125.254H42.5996Z" fill="black"/>
<path d="M58.2018 126.647H57.1688V128.355H58.2018C58.8209 128.355 59.1142 128.03 59.1142 127.491C59.1142 126.982 58.8242 126.647 58.2018 126.647ZM58.2996 125.254C59.9712 125.254 60.8087 126.22 60.8087 127.419C60.8087 128.283 60.3395 129.094 59.2902 129.407L60.8641 132.13H58.9871L57.5664 129.535H57.1656V132.13H55.5004V125.254H58.2996Z" fill="black"/>
<path d="M78.653 126.647H77.62V128.355H78.653C79.2721 128.355 79.5654 128.03 79.5654 127.491C79.5654 126.982 79.2754 126.647 78.653 126.647ZM78.7507 125.254C80.4224 125.254 81.2598 126.22 81.2598 127.419C81.2598 128.283 80.7906 129.094 79.7413 129.407L81.3153 132.13H79.4383L78.0176 129.535H77.6167V132.13H75.9516V125.254H78.7507Z" fill="black"/>
<path d="M91.5568 130.672C92.6451 130.672 93.3555 129.877 93.3555 128.671C93.3555 127.465 92.6451 126.67 91.5568 126.67C90.4684 126.67 89.745 127.442 89.745 128.671C89.745 129.9 90.4423 130.672 91.5568 130.672ZM91.5568 132.196C89.6179 132.196 88.044 130.741 88.044 128.671C88.044 126.601 89.6179 125.152 91.5568 125.152C93.4956 125.152 95.05 126.601 95.05 128.671C95.05 130.741 93.4956 132.196 91.5568 132.196Z" fill="black"/>
<path d="M104.969 127.107L104.132 129.62H105.813L104.969 127.107ZM106.24 130.918H103.695L103.288 132.13H101.551L104.024 125.254H105.95L108.424 132.13H106.661L106.253 130.918H106.24Z" fill="black"/>
<path d="M117.632 130.678C118.883 130.678 119.626 129.955 119.626 128.69C119.626 127.425 118.887 126.683 117.632 126.683H116.843V130.678H117.632ZM121.317 128.69C121.317 130.727 119.92 132.13 117.74 132.13H115.182V125.254H117.74C119.92 125.254 121.317 126.644 121.317 128.694V128.69Z" fill="black"/>
<path d="M135.998 125.254H141.277V126.591H139.465V132.124H137.803V126.591H135.991V125.254H135.998Z" fill="black"/>
<path d="M151.362 130.672C152.45 130.672 153.161 129.877 153.161 128.671C153.161 127.465 152.45 126.67 151.362 126.67C150.273 126.67 149.55 127.442 149.55 128.671C149.55 129.9 150.247 130.672 151.362 130.672ZM151.362 132.196C149.423 132.196 147.849 130.741 147.849 128.671C147.849 126.601 149.423 125.152 151.362 125.152C153.301 125.152 154.855 126.601 154.855 128.671C154.855 130.741 153.301 132.196 151.362 132.196Z" fill="black"/>
<path d="M169.522 125.254H174.801V126.591H172.989V132.124H171.324V126.591H169.515V125.254H169.522Z" fill="black"/>
<path d="M185.912 129.298H183.325V132.13H181.66V125.254H183.325V127.945H185.912V125.254H187.578V132.13H185.912V129.298Z" fill="black"/>
<path d="M198.973 126.598H196.451V127.988H198.683V129.279H196.451V130.784H198.973V132.124H194.796V125.248H198.973V126.588V126.598Z" fill="black"/>
<path d="M216.859 126.647H215.826V128.355H216.859C217.479 128.355 217.772 128.03 217.772 127.491C217.772 126.982 217.482 126.647 216.859 126.647ZM216.957 125.254C218.629 125.254 219.466 126.22 219.466 127.419C219.466 128.283 218.997 129.094 217.948 129.407L219.522 132.13H217.645L216.224 129.535H215.823V132.13H214.158V125.254H216.957Z" fill="black"/>
<path d="M229.757 130.672C230.846 130.672 231.556 129.877 231.556 128.671C231.556 127.465 230.846 126.67 229.757 126.67C228.669 126.67 227.945 127.442 227.945 128.671C227.945 129.9 228.643 130.672 229.757 130.672ZM229.757 132.196C227.818 132.196 226.244 130.741 226.244 128.671C226.244 126.601 227.818 125.152 229.757 125.152C231.696 125.152 233.25 126.601 233.25 128.671C233.25 130.741 231.696 132.196 229.757 132.196Z" fill="black"/>
<path d="M243.173 127.107L242.335 129.62H244.017L243.173 127.107ZM244.447 130.918H241.902L241.495 132.13H239.751L242.225 125.254H244.15L246.624 132.13H244.861L244.453 130.918H244.447Z" fill="black"/>
<path d="M255.839 130.678C257.097 130.678 257.833 129.955 257.833 128.69C257.833 127.425 257.094 126.683 255.839 126.683H255.051V130.678H255.839ZM259.528 128.69C259.528 130.727 258.13 132.13 255.95 132.13H253.392V125.254H255.95C258.123 125.254 259.528 126.644 259.528 128.694V128.69Z" fill="black"/>
</svg>
