<svg width="32" height="32" viewBox="0 0 32 32" fill="none" xmlns="http://www.w3.org/2000/svg">
<path d="M14.7684 28.3595C14.6835 28.3595 14.5996 28.3419 14.5218 28.3079C14.444 28.2739 14.3742 28.2241 14.3165 28.1618L2.13273 14.9824C2.05151 14.8945 1.99767 14.7849 1.97779 14.6669C1.95791 14.5489 1.97286 14.4277 2.02081 14.318C2.06876 14.2084 2.14763 14.1152 2.24776 14.0497C2.3479 13.9842 2.46496 13.9493 2.58461 13.9493H8.44922C8.53728 13.9493 8.6243 13.9682 8.70443 14.0047C8.78456 14.0412 8.85593 14.0945 8.91372 14.1609L12.9856 18.8455C13.4257 17.9048 14.2775 16.3385 15.7724 14.4299C17.9824 11.6084 22.093 7.45881 29.1259 3.71284C29.2618 3.64045 29.42 3.62167 29.5691 3.66019C29.7182 3.69871 29.8474 3.79174 29.9313 3.92091C30.0152 4.05008 30.0475 4.206 30.022 4.35788C29.9965 4.50976 29.915 4.64656 29.7936 4.74127C29.7668 4.76226 27.0551 6.89764 23.9344 10.809C21.0623 14.4083 17.2443 20.2939 15.3656 27.892C15.3326 28.0255 15.2558 28.1441 15.1476 28.2289C15.0393 28.3137 14.9057 28.3597 14.7682 28.3597L14.7684 28.3595Z" fill="white"/>
</svg>
