<svg width="32" height="32" viewBox="0 0 32 32" fill="none" xmlns="http://www.w3.org/2000/svg">
<path d="M17.3708 2.66797C18.8708 2.67197 19.6321 2.67997 20.2894 2.69864L20.5481 2.70797C20.8468 2.71864 21.1414 2.73197 21.4974 2.74797C22.9161 2.81464 23.8841 3.03864 24.7334 3.36797C25.6134 3.70664 26.3548 4.1653 27.0961 4.9053C27.7744 5.57161 28.299 6.37793 28.6334 7.26797C28.9628 8.1173 29.1868 9.0853 29.2534 10.5053C29.2694 10.86 29.2828 11.1546 29.2934 11.4546L29.3014 11.7133C29.3214 12.3693 29.3294 13.1306 29.3321 14.6306L29.3334 15.6253V17.372C29.3367 18.3445 29.3265 19.317 29.3028 20.2893L29.2948 20.548C29.2841 20.848 29.2708 21.1426 29.2548 21.4973C29.1881 22.9173 28.9614 23.884 28.6334 24.7346C28.299 25.6247 27.7744 26.431 27.0961 27.0973C26.4298 27.7756 25.6235 28.3002 24.7334 28.6346C23.8841 28.964 22.9161 29.188 21.4974 29.2546L20.5481 29.2946L20.2894 29.3026C19.6321 29.3213 18.8708 29.3306 17.3708 29.3333L16.3761 29.3346H14.6308C13.6578 29.3381 12.6848 29.3278 11.7121 29.304L11.4534 29.296C11.1369 29.284 10.8205 29.2702 10.5041 29.2546C9.08544 29.188 8.11744 28.964 7.26677 28.6346C6.37721 28.3 5.57136 27.7754 4.90544 27.0973C4.2267 26.4311 3.70159 25.6248 3.36677 24.7346C3.03744 23.8853 2.81344 22.9173 2.74677 21.4973L2.70677 20.548L2.70011 20.2893C2.67553 19.3171 2.66442 18.3445 2.66677 17.372V14.6306C2.66308 13.6581 2.67286 12.6856 2.69611 11.7133L2.70544 11.4546C2.71611 11.1546 2.72944 10.86 2.74544 10.5053C2.81211 9.0853 3.03611 8.11864 3.36544 7.26797C3.70103 6.37757 4.22707 5.57122 4.90677 4.9053C5.57231 4.22737 6.37769 3.70273 7.26677 3.36797C8.11744 3.03864 9.08411 2.81464 10.5041 2.74797C10.8588 2.73197 11.1548 2.71864 11.4534 2.70797L11.7121 2.69997C12.6844 2.67628 13.6569 2.66606 14.6294 2.6693L17.3708 2.66797ZM16.0001 9.33464C14.232 9.33464 12.5363 10.037 11.2861 11.2873C10.0358 12.5375 9.33344 14.2332 9.33344 16.0013C9.33344 17.7694 10.0358 19.4651 11.2861 20.7153C12.5363 21.9656 14.232 22.668 16.0001 22.668C17.7682 22.668 19.4639 21.9656 20.7142 20.7153C21.9644 19.4651 22.6668 17.7694 22.6668 16.0013C22.6668 14.2332 21.9644 12.5375 20.7142 11.2873C19.4639 10.037 17.7682 9.33464 16.0001 9.33464ZM16.0001 12.0013C16.5254 12.0012 17.0456 12.1046 17.5309 12.3055C18.0162 12.5065 18.4572 12.801 18.8287 13.1724C19.2002 13.5438 19.4949 13.9847 19.696 14.47C19.8971 14.9552 20.0007 15.4753 20.0008 16.0006C20.0009 16.5259 19.8975 17.0461 19.6965 17.5314C19.4956 18.0168 19.201 18.4578 18.8297 18.8293C18.4583 19.2008 18.0174 19.4955 17.5321 19.6966C17.0469 19.8977 16.5267 20.0012 16.0014 20.0013C14.9406 20.0013 13.9232 19.5799 13.173 18.8297C12.4229 18.0796 12.0014 17.0622 12.0014 16.0013C12.0014 14.9404 12.4229 13.923 13.173 13.1729C13.9232 12.4227 14.9406 12.0013 16.0014 12.0013M23.0014 7.33464C22.5594 7.33464 22.1355 7.51023 21.8229 7.82279C21.5104 8.13535 21.3348 8.55927 21.3348 9.0013C21.3348 9.44333 21.5104 9.86725 21.8229 10.1798C22.1355 10.4924 22.5594 10.668 23.0014 10.668C23.4435 10.668 23.8674 10.4924 24.18 10.1798C24.4925 9.86725 24.6681 9.44333 24.6681 9.0013C24.6681 8.55927 24.4925 8.13535 24.18 7.82279C23.8674 7.51023 23.4435 7.33464 23.0014 7.33464Z" fill="white"/>
</svg>
