<svg width="50" height="50" viewBox="0 0 50 50" fill="none" xmlns="http://www.w3.org/2000/svg">
<g clip-path="url(#clip0_1_1970)">
<path d="M16.1282 44.4003C16.1282 45.6676 15.0913 46.7045 13.824 46.7045H4.30013C3.03284 46.7045 1.99597 45.6676 1.99597 44.4003V33.9548C1.99597 32.6875 3.03284 31.6506 4.30013 31.6506H13.824C15.0913 31.6506 16.1282 32.6875 16.1282 33.9548V44.4003Z" fill="white"/>
<path d="M33.0637 44.401C33.0637 45.6683 32.0268 46.7052 30.7595 46.7052H21.2357C19.9684 46.7052 18.9315 45.6683 18.9315 44.401V28.4255C18.9315 27.1582 19.9684 26.1213 21.2357 26.1213H30.7595C32.0268 26.1213 33.0637 27.1582 33.0637 28.4255V44.401Z" fill="white"/>
<path d="M50.0002 44.4009C50.0002 45.6682 48.9634 46.7051 47.6961 46.7051H38.1722C36.9049 46.7051 35.868 45.6682 35.868 44.4009V22.281C35.868 21.0137 36.9049 19.9768 38.1722 19.9768H47.6961C48.9634 19.9768 50.0002 21.0137 50.0002 22.281V44.4009Z" fill="white"/>
<path d="M48.0067 3.33815L37.6572 5.85614C36.836 6.05491 36.653 6.70637 37.2504 7.30376L39.4589 9.46061C39.6443 9.67198 39.4243 9.95309 39.2498 10.0721C37.8592 11.0215 35.6522 12.4144 32.6017 14.006C15.9941 22.6707 2.30381 22.1392 2.09797 22.1298C0.999039 22.0741 0.0594017 22.9206 0.00256568 24.0214C-0.0541167 25.1228 0.792586 26.0618 1.89398 26.1185C1.97493 26.1226 2.30412 26.1375 2.85758 26.1375C6.40706 26.1375 19.1574 25.5251 34.4492 17.547C38.0675 15.6593 40.5753 14.0311 42.0397 13.0004C42.2468 12.8546 42.6076 12.6033 42.9406 12.9424L45.3561 15.3577C45.9535 15.9551 46.6018 15.7713 46.7972 14.9493L49.1451 4.47133C49.3402 3.64921 48.8278 3.13938 48.0067 3.33815Z" fill="white"/>
</g>
<defs>
<clipPath id="clip0_1_1970">
<rect width="50" height="50" fill="white"/>
</clipPath>
</defs>
</svg>
