<svg width="32" height="32" viewBox="0 0 32 32" fill="none" xmlns="http://www.w3.org/2000/svg">
<path fill-rule="evenodd" clip-rule="evenodd" d="M15.9998 5.33203C17.1398 5.33203 18.3092 5.36136 19.4425 5.40936L20.7812 5.47336L22.0625 5.54936L23.2625 5.6307L24.3585 5.71603C25.5481 5.80655 26.6676 6.31394 27.5198 7.14883C28.372 7.98372 28.9023 9.09256 29.0172 10.28L29.0705 10.8467L29.1705 12.06C29.2638 13.3174 29.3332 14.688 29.3332 15.9987C29.3332 17.3094 29.2638 18.68 29.1705 19.9374L29.0705 21.1507L29.0172 21.7174C28.9022 22.905 28.3718 24.014 27.5193 24.849C26.6668 25.6839 25.547 26.1911 24.3572 26.2814L23.2638 26.3654L22.0638 26.448L20.7812 26.524L19.4425 26.588C18.2956 26.6377 17.1478 26.6635 15.9998 26.6654C14.8519 26.6635 13.7041 26.6377 12.5572 26.588L11.2185 26.524L9.93717 26.448L8.73717 26.3654L7.64117 26.2814C6.45159 26.1908 5.3321 25.6835 4.4799 24.8486C3.62769 24.0137 3.09742 22.9048 2.9825 21.7174L2.92917 21.1507L2.82917 19.9374C2.72761 18.6269 2.67336 17.3131 2.6665 15.9987C2.6665 14.688 2.73584 13.3174 2.82917 12.06L2.92917 10.8467L2.9825 10.28C3.09738 9.09277 3.62745 7.9841 4.47939 7.14924C5.33132 6.31438 6.45049 5.80685 7.63984 5.71603L8.7345 5.6307L9.9345 5.54936L11.2172 5.47336L12.5558 5.40936C13.7032 5.35967 14.8514 5.33388 15.9998 5.33203ZM13.3332 12.7654V19.232C13.3332 19.848 13.9998 20.232 14.5332 19.9254L20.1332 16.692C20.255 16.6219 20.3562 16.5209 20.4266 16.3991C20.497 16.2774 20.5341 16.1393 20.5341 15.9987C20.5341 15.8581 20.497 15.72 20.4266 15.5983C20.3562 15.4765 20.255 15.3755 20.1332 15.3054L14.5332 12.0734C14.4115 12.0031 14.2735 11.9662 14.133 11.9662C13.9926 11.9662 13.8546 12.0032 13.7329 12.0735C13.6113 12.1438 13.5103 12.2448 13.4402 12.3665C13.37 12.4882 13.3331 12.6262 13.3332 12.7667V12.7654Z" fill="white"/>
</svg>
