<svg width="86" height="86" viewBox="0 0 86 86" fill="none" xmlns="http://www.w3.org/2000/svg">
<path d="M43.0033 85.9999C66.7403 85.9999 85.9999 66.7337 85.9999 42.9966C85.9999 19.2595 66.7403 0 43.0033 0C31.6046 0 20.6625 4.53797 12.6203 12.5868C4.54464 20.6558 -5.37767e-05 31.6047 -5.37767e-05 42.9966C-0.00676819 66.7404 19.2595 85.9999 43.0033 85.9999ZM43.0033 59.1145C34.122 59.1145 26.8854 51.8779 26.8854 42.9966C26.8854 34.0818 34.122 26.8855 43.0033 26.8855C51.9114 26.8855 59.148 34.0818 59.148 42.9966C59.148 51.8846 51.9114 59.1145 43.0033 59.1145Z" fill="white"/>
</svg>
