<svg width="50" height="50" viewBox="0 0 50 50" fill="none" xmlns="http://www.w3.org/2000/svg">
<g clip-path="url(#clip0_1_2004)">
<path d="M44.6127 0H5.3873C2.4167 0 0 2.4168 0 5.3874V35.1986C0 38.1692 2.4167 40.5859 5.3873 40.5859H28.4506V34.4141C28.4506 29.3954 32.5335 25.3125 37.5521 25.3125C42.5706 25.3125 46.6535 29.3955 46.6535 34.4141V40.1832C48.6148 39.3772 50 37.4471 50 35.1986V5.3874C50 2.4168 47.5832 0 44.6127 0ZM14.0169 6.38018H35.9831C36.792 6.38018 37.4479 7.03604 37.4479 7.84502C37.4479 8.654 36.792 9.30986 35.9831 9.30986H14.0169C13.208 9.30986 12.5521 8.654 12.5521 7.84502C12.5521 7.03604 13.208 6.38018 14.0169 6.38018ZM23.6393 32.7409H7.74082C6.93193 32.7409 6.27598 32.0851 6.27598 31.2761C6.27598 30.4671 6.93193 29.8112 7.74082 29.8112H23.6394C24.4484 29.8112 25.1042 30.4671 25.1042 31.2761C25.1042 32.0851 24.4484 32.7409 23.6393 32.7409ZM42.259 21.862H7.74082C6.93193 21.862 6.27598 21.2062 6.27598 20.3972C6.27598 19.5882 6.93193 18.9323 7.74082 18.9323H42.2591C43.0682 18.9323 43.7239 19.5882 43.7239 20.3972C43.7238 21.2062 43.0682 21.862 42.259 21.862ZM42.259 15.5859H7.74082C6.93193 15.5859 6.27598 14.9301 6.27598 14.1211C6.27598 13.3121 6.93193 12.6563 7.74082 12.6563H42.2591C43.0682 12.6563 43.7239 13.3121 43.7239 14.1211C43.7238 14.9301 43.0682 15.5859 42.259 15.5859Z" fill="white"/>
<path d="M37.5517 28.2422C34.1485 28.2422 31.3799 31.0109 31.3799 34.4141C31.3799 37.8172 34.1486 40.5858 37.5517 40.5858C40.9549 40.5858 43.7234 37.8172 43.7234 34.4141C43.7234 31.0109 40.9549 28.2422 37.5517 28.2422Z" fill="white"/>
<path d="M31.3799 41.0977V48.5359C31.3799 49.0762 31.6771 49.5726 32.1535 49.8274C32.37 49.9435 32.6076 50.0008 32.8445 50.0008C33.1288 50.0008 33.4122 49.9182 33.6572 49.7547L37.5517 47.1584L41.4461 49.7547C41.6913 49.9182 41.9745 50.0008 42.2588 50.0008C42.4957 50.0008 42.7333 49.9434 42.9498 49.8275C43.4262 49.5727 43.7234 49.0763 43.7234 48.5359V41.0977C42.1001 42.5979 39.9312 43.5164 37.5517 43.5164C35.1721 43.5164 33.0032 42.5979 31.3799 41.0977Z" fill="white"/>
</g>
<defs>
<clipPath id="clip0_1_2004">
<rect width="50" height="50" fill="white"/>
</clipPath>
</defs>
</svg>
