<svg width="50" height="50" viewBox="0 0 50 50" fill="none" xmlns="http://www.w3.org/2000/svg">
<path d="M39.7181 1.51367H10.282C4.6125 1.51367 0 6.12617 0 11.7957C0 17.4927 4.66045 22.0777 10.2207 22.0777H14.8389V14.0217C14.8389 10.4139 17.7739 7.47871 21.3816 7.47871H21.3959C24.996 7.48643 27.9248 10.4216 27.9248 14.0217V22.0777H39.7181C45.3876 22.0777 50 17.4652 50 11.7957C50 6.12617 45.3876 1.51367 39.7181 1.51367ZM42.6276 10.3619L36.7683 16.2213C36.1963 16.7934 35.2687 16.7935 34.6967 16.2213L31.767 13.2916C31.1949 12.7195 31.1949 11.7921 31.767 11.22C32.339 10.6479 33.2665 10.6479 33.8386 11.22L35.7325 13.1139L40.5562 8.29033C41.1281 7.71826 42.0557 7.71826 42.6277 8.29033C43.1997 8.8624 43.1997 9.78994 42.6276 10.3619Z" fill="white"/>
<path d="M34.4249 26.2001L24.9949 25.2199V14.0215C24.9949 12.0289 23.3819 10.4125 21.3893 10.4082C19.3908 10.4039 17.7683 12.0229 17.7683 14.0215V32.7636H17.7355L14.1688 29.7851C12.6644 28.5288 10.4195 28.7644 9.20855 30.3055C8.04731 31.7834 8.27153 33.9167 9.7146 35.1209L16.9542 41.162H38.276V30.5608C38.276 28.3439 36.6248 26.4741 34.4249 26.2001Z" fill="white"/>
<path d="M17.7686 47.0215C17.7686 47.8305 18.4244 48.4863 19.2334 48.4863H36.8115C37.6205 48.4863 38.2764 47.8305 38.2764 47.0215V44.0918H17.7686V47.0215Z" fill="white"/>
</svg>
