<svg width="427" height="229" viewBox="0 0 427 229" fill="none" xmlns="http://www.w3.org/2000/svg">
<path fill-rule="evenodd" clip-rule="evenodd" d="M78.5969 228.281H394.389C412.337 228.281 427 212.209 427 192.267V113.436C427 102.996 419.844 94.55 408.583 91.9693C403.421 90.7961 390.635 87.981 372.921 84.2271C333.975 75.7809 268.87 61.7041 212.562 48.6827C132.91 30.2654 110.857 22.9925 104.756 20.4117C102.879 8.68087 93.8465 0.000332264 82.9366 0.000332264L22.1711 0C9.97106 0 -3.05489e-05 10.7925 -3.05489e-05 24.1653C-3.05489e-05 37.5382 9.97106 48.3306 22.1711 48.3306L39.8847 48.3309C43.052 48.5657 45.7502 52.2022 45.7502 56.3079V192.385C45.9846 212.209 60.6489 228.281 78.5969 228.281ZM90.4449 202.121C94.3161 202.121 97.4834 198.954 97.4834 195.083V68.1555C97.4834 64.2842 94.3161 61.1169 90.4449 61.1169C86.5736 61.1169 83.4063 64.2842 83.4063 68.1555V195.083C83.4063 198.954 86.5736 202.121 90.4449 202.121ZM126.927 202.121C130.799 202.121 133.966 198.954 133.966 195.083V71.5576C133.966 67.6863 130.799 64.519 126.927 64.519C123.056 64.519 119.889 67.6863 119.889 71.5576V195.2C119.889 198.954 123.056 202.121 126.927 202.121ZM163.527 202.121C167.399 202.121 170.566 198.954 170.566 195.083V78.948C170.566 75.0767 167.399 71.9094 163.527 71.9094C159.656 71.9094 156.489 75.0767 156.489 78.948V195.083C156.489 198.954 159.656 202.121 163.527 202.121ZM200.01 202.121C203.881 202.121 207.049 198.954 207.049 195.083V85.7522C207.049 81.8809 203.881 78.7136 200.01 78.7136C196.139 78.7136 192.972 81.8809 192.972 85.7522V195.083C192.972 198.954 196.139 202.121 200.01 202.121ZM236.493 202.121C240.364 202.121 243.531 198.954 243.531 195.083V92.3207C243.531 88.4495 240.364 85.2822 236.493 85.2822C232.621 85.2822 229.454 88.4495 229.454 92.3207V195.083C229.454 198.954 232.622 202.121 236.493 202.121ZM273.093 202.121C276.964 202.121 280.131 198.954 280.131 195.083V98.6554C280.131 94.7841 276.964 91.6168 273.093 91.6168C269.221 91.6168 266.054 94.7841 266.054 98.6554V195.083C266.054 198.954 269.104 202.121 273.093 202.121ZM309.575 202.121C313.447 202.121 316.614 198.954 316.614 195.083V104.99C316.614 101.119 313.447 97.9514 309.575 97.9514C305.704 97.9514 302.537 101.119 302.537 104.99V195.083C302.537 198.954 305.704 202.121 309.575 202.121ZM346.058 202.121C349.929 202.121 353.097 198.954 353.097 195.083L353.096 111.677C353.096 107.806 349.929 104.639 346.058 104.639C342.187 104.639 339.019 107.806 339.019 111.677V195.083C339.02 198.954 342.187 202.121 346.058 202.121ZM382.541 202.121C386.412 202.121 389.58 198.954 389.58 195.083V117.425C389.58 113.554 386.412 110.386 382.541 110.386C378.67 110.386 375.502 113.554 375.502 117.425V195.083C375.502 198.954 378.67 202.121 382.541 202.121Z" fill="white"/>
</svg>
