<svg width="50" height="50" viewBox="0 0 50 50" fill="none" xmlns="http://www.w3.org/2000/svg">
<g clip-path="url(#clip0_1_1942)">
<path d="M20.6051 15.1365C9.29717 15.1365 0.000102841 22.9125 0.000102841 32.471C0.000102841 36.2918 1.48213 40.1749 4.20001 43.1846L0.362017 47.5705C-0.0156198 48.0025 -0.107221 48.6162 0.131743 49.1397C0.369243 49.6632 0.889947 49.9995 1.46495 49.9995H22.0699C30.419 49.9995 41.2101 42.81 41.2101 32.471C41.2101 22.9125 31.913 15.1365 20.6051 15.1365ZM11.7186 35.156C10.1035 35.156 8.78897 33.8414 8.78897 32.2264C8.78897 30.6114 10.1036 29.2968 11.7186 29.2968C13.3335 29.2968 14.6481 30.6115 14.6481 32.2264C14.6482 33.8414 13.3336 35.156 11.7186 35.156ZM20.6051 35.156C18.99 35.156 17.6755 33.8414 17.6755 32.2264C17.6755 30.6114 18.9901 29.2968 20.6051 29.2968C22.22 29.2968 23.5347 30.6115 23.5347 32.2264C23.5347 33.8414 22.2201 35.156 20.6051 35.156ZM29.4916 35.156C27.8766 35.156 26.562 33.8414 26.562 32.2264C26.562 30.6114 27.8767 29.2968 29.4916 29.2968C31.1065 29.2968 32.4212 30.6115 32.4212 32.2264C32.4212 33.8414 31.1066 35.156 29.4916 35.156Z" fill="white"/>
<path d="M49.6453 29.8068L46.1965 25.7829C48.6583 23.005 49.9987 19.6175 49.9987 16.1129C49.9986 7.22822 41.4559 0 30.9562 0C21.4615 0 13.395 5.91689 11.9707 13.6182C14.6199 12.718 17.5909 12.2063 20.6049 12.2063C33.4323 12.2063 43.9712 21.1657 44.1252 32.2258H48.5339C49.7852 32.2259 50.4571 30.7524 49.6453 29.8068Z" fill="white"/>
</g>
<defs>
<clipPath id="clip0_1_1942">
<rect width="50" height="50" fill="white"/>
</clipPath>
</defs>
</svg>
